<svg width="77" height="36" viewBox="0 0 77 36" fill="none" xmlns="http://www.w3.org/2000/svg">
<path fill-rule="evenodd" clip-rule="evenodd" d="M4.06182 1.25667C3.94614 1.25667 3.85237 1.35044 3.85237 1.46611V6.53966C3.85237 6.88668 3.57106 7.168 3.22404 7.168C2.87702 7.168 2.5957 6.88668 2.5957 6.53966V1.46611C2.5957 0.656402 3.2521 0 4.06182 0H55.3863C56.196 0 56.8524 0.656402 56.8524 1.46611V4.27783H63.7231C64.5973 4.27783 65.3962 4.77263 65.7857 5.55531L69.6945 13.4101H72.2994C73.5718 13.4101 74.6033 14.4416 74.6033 15.714V24.9297H74.7727C75.5824 24.9297 76.2388 25.5861 76.2388 26.3958V28.951C76.2388 29.7607 75.5824 30.4171 74.7727 30.4171H72.0737C71.3999 33.112 68.9625 35.1081 66.0589 35.1081C63.1552 35.1081 60.7178 33.1118 60.0441 30.4168H55.3776C55.0306 30.4168 54.7493 30.1355 54.7493 29.7885C54.7493 29.4415 55.0306 29.1602 55.3776 29.1602H59.8644C59.8611 29.0767 59.8594 28.9928 59.8594 28.9086C59.8594 27.9484 60.0777 27.0392 60.4673 26.2279H56.4127C56.3531 26.2466 56.2898 26.2567 56.224 26.2567C56.1583 26.2567 56.0949 26.2466 56.0354 26.2279H15.9806C16.3703 27.0392 16.5886 27.9484 16.5886 28.9086C16.5886 28.9928 16.5869 29.0767 16.5836 29.1602H51.5657C51.9128 29.1602 52.1941 29.4415 52.1941 29.7885C52.1941 30.1355 51.9128 30.4168 51.5657 30.4168H16.4038C15.7302 33.1118 13.2927 35.1081 10.389 35.1081C7.44032 35.1081 4.97244 33.0495 4.34418 30.2911H1.46611C0.656402 30.2911 0 29.6347 0 28.825V26.4373C0 25.6276 0.656402 24.9712 1.46611 24.9712H2.3457V9.13712C2.3457 8.7901 2.62702 8.50879 2.97404 8.50879C3.32106 8.50879 3.60237 8.7901 3.60237 9.13712V24.9712H5.60007C6.73712 23.5898 8.4602 22.709 10.389 22.709C12.3178 22.709 14.0409 23.5898 15.178 24.9712H55.5957V1.46611C55.5957 1.35044 55.5019 1.25667 55.3863 1.25667H4.06182ZM72.2535 29.1605H74.7727C74.8884 29.1605 74.9822 29.0667 74.9822 28.951V26.3958C74.9822 26.2801 74.8884 26.1864 74.7727 26.1864H71.6304C72.0327 27.0081 72.2585 27.932 72.2585 28.9086C72.2585 28.9929 72.2568 29.0769 72.2535 29.1605ZM70.8134 24.9297H73.3466V21.2432H71.841C70.5686 21.2432 69.5371 20.2117 69.5371 18.9393V18.8137C69.5371 17.5413 70.5686 16.5098 71.841 16.5098H73.3466V15.714C73.3466 15.1356 72.8778 14.6668 72.2994 14.6668H60.5286C59.7189 14.6668 59.0625 14.0104 59.0625 13.2006V8.50908C59.0625 7.69937 59.7189 7.04297 60.5286 7.04297H65.1224L64.6607 6.11517C64.4836 5.75941 64.1205 5.5345 63.7231 5.5345H56.8524V24.9712H61.27C62.407 23.5898 64.1301 22.709 66.0589 22.709C67.9684 22.709 69.6762 23.5722 70.8134 24.9297ZM73.3466 17.7664V19.9865H71.841C71.2626 19.9865 70.7938 19.5177 70.7938 18.9393V18.8137C70.7938 18.2353 71.2626 17.7664 71.841 17.7664H73.3466ZM4.79739 26.2279H1.46611C1.35044 26.2279 1.25667 26.3216 1.25667 26.4373V28.825C1.25667 28.9407 1.35044 29.0344 1.46611 29.0344H4.19071C4.18987 28.9926 4.18945 28.9506 4.18945 28.9086C4.18945 27.9484 4.40774 27.0392 4.79739 26.2279ZM65.7477 8.29964L68.2908 13.4101H60.5286C60.4129 13.4101 60.3192 13.3163 60.3192 13.2006V8.50908C60.3192 8.39341 60.4129 8.29964 60.5286 8.29964H65.7477ZM5.44612 28.9086C5.44612 26.1787 7.65913 23.9657 10.389 23.9657C13.1189 23.9657 15.3319 26.1787 15.3319 28.9086C15.3319 31.6384 13.1189 33.8514 10.389 33.8514C7.65913 33.8514 5.44612 31.6384 5.44612 28.9086ZM61.116 28.9086C61.116 26.1787 63.3291 23.9657 66.0589 23.9657C68.7888 23.9657 71.0018 26.1787 71.0018 28.9086C71.0018 31.6384 68.7888 33.8514 66.0589 33.8514C63.3291 33.8514 61.116 31.6384 61.116 28.9086ZM10.3893 27.2332C9.46387 27.2332 8.7137 27.9834 8.7137 28.9088C8.7137 29.8342 9.46387 30.5843 10.3893 30.5843C11.3146 30.5843 12.0648 29.8342 12.0648 28.9088C12.0648 27.9834 11.3146 27.2332 10.3893 27.2332ZM7.45703 28.9088C7.45703 27.2894 8.76983 25.9766 10.3893 25.9766C12.0087 25.9766 13.3215 27.2894 13.3215 28.9088C13.3215 30.5282 12.0087 31.841 10.3893 31.841C8.76983 31.841 7.45703 30.5282 7.45703 28.9088ZM64.3836 28.9088C64.3836 27.9834 65.1338 27.2332 66.0592 27.2332C66.9846 27.2332 67.7347 27.9834 67.7347 28.9088C67.7347 29.8342 66.9846 30.5843 66.0592 30.5843C65.1338 30.5843 64.3836 29.8342 64.3836 28.9088ZM66.0592 25.9766C64.4398 25.9766 63.127 27.2894 63.127 28.9088C63.127 30.5282 64.4398 31.841 66.0592 31.841C67.6786 31.841 68.9914 30.5282 68.9914 28.9088C68.9914 27.2894 67.6786 25.9766 66.0592 25.9766ZM59.4838 17.4312C59.1368 17.4312 58.8555 17.7125 58.8555 18.0595C58.8555 18.4065 59.1368 18.6878 59.4838 18.6878H61.9134C62.2604 18.6878 62.5417 18.4065 62.5417 18.0595C62.5417 17.7125 62.2604 17.4312 61.9134 17.4312H59.4838Z" fill="#323232"/>
</svg>
