<svg width="54" height="36" viewBox="0 0 54 36" fill="none" xmlns="http://www.w3.org/2000/svg">
<path fill-rule="evenodd" clip-rule="evenodd" d="M3.06182 1.25667C2.94614 1.25667 2.85237 1.35044 2.85237 1.46611V6.53966C2.85237 6.88668 2.57106 7.168 2.22404 7.168C1.87702 7.168 1.5957 6.88668 1.5957 6.53966V1.46611C1.5957 0.656402 2.2521 0 3.06182 0H32.3863C33.196 0 33.8524 0.656401 33.8524 1.46611V4.28271C33.8782 4.27949 33.9044 4.27783 33.9311 4.27783H40.936C41.8102 4.27783 42.6091 4.77263 42.9986 5.55531L46.9074 13.4101H49.5143C50.7867 13.4101 51.8182 14.4416 51.8182 15.714V24.9297H51.9837C52.7934 24.9297 53.4498 25.5861 53.4498 26.3958V28.951C53.4498 29.7607 52.7934 30.4171 51.9837 30.4171H49.2866C48.6128 33.112 46.1754 35.1081 43.2718 35.1081C40.3681 35.1081 37.9307 33.1118 37.257 30.4168H32.5892C32.2421 30.4168 31.9608 30.1355 31.9608 29.7885C31.9608 29.4415 32.2421 29.1602 32.5892 29.1602H37.0773C37.0739 29.0767 37.0723 28.9928 37.0723 28.9086C37.0723 27.9484 37.2906 27.0392 37.6802 26.2279H33.4127C33.3531 26.2466 33.2898 26.2567 33.224 26.2567C33.1583 26.2567 33.0949 26.2466 33.0354 26.2279H15.8556C16.2453 27.0392 16.4636 27.9484 16.4636 28.9086C16.4636 28.9928 16.4619 29.0767 16.4586 29.1602H28.7773C29.1243 29.1602 29.4056 29.4415 29.4056 29.7885C29.4056 30.1355 29.1243 30.4168 28.7773 30.4168H16.2943L16.2789 30.4166C15.6053 33.1117 13.1678 35.1081 10.264 35.1081C7.31532 35.1081 4.84744 33.0495 4.21918 30.2911H1.46611C0.656402 30.2911 0 29.6347 0 28.825V26.4373C0 25.6276 0.656402 24.9712 1.46611 24.9712H1.75977V9.13712C1.75977 8.7901 2.04108 8.50879 2.3881 8.50879C2.73512 8.50879 3.01643 8.7901 3.01643 9.13712V24.9712H5.47507C6.61212 23.5898 8.3352 22.709 10.264 22.709C12.1928 22.709 13.9159 23.5898 15.053 24.9712H32.5957V1.46611C32.5957 1.35044 32.5019 1.25667 32.3863 1.25667H3.06182ZM5.40368 29.6628C5.40368 29.6979 5.40079 29.7324 5.39523 29.766C5.80121 32.0872 7.82658 33.8514 10.264 33.8514C12.9939 33.8514 15.2069 31.6384 15.2069 28.9086C15.2069 26.1787 12.9939 23.9657 10.264 23.9657C7.53413 23.9657 5.32112 26.1787 5.32112 28.9086C5.32112 29.0734 5.3292 29.2365 5.34497 29.3972C5.38264 29.4779 5.40368 29.5679 5.40368 29.6628ZM1.46611 29.0344H4.06571C4.06487 28.9926 4.06445 28.9506 4.06445 28.9086C4.06445 27.9484 4.28274 27.0392 4.67239 26.2279H1.46611C1.35044 26.2279 1.25667 26.3216 1.25667 26.4373V28.825C1.25667 28.9407 1.35044 29.0344 1.46611 29.0344ZM43.2718 22.709C41.343 22.709 39.6199 23.5898 38.4829 24.9712H33.8524V5.52962C33.8782 5.53284 33.9044 5.5345 33.9311 5.5345H40.936C41.3334 5.5345 41.6965 5.75941 41.8736 6.11517L42.3353 7.04297H37.7435C36.9337 7.04297 36.2773 7.69937 36.2773 8.50908V13.2006C36.2773 14.0104 36.9337 14.6668 37.7435 14.6668H49.5143C50.0926 14.6668 50.5615 15.1356 50.5615 15.714V16.5098H49.0519C47.7795 16.5098 46.748 17.5413 46.748 18.8137V18.9393C46.748 20.2117 47.7795 21.2432 49.0519 21.2432H50.5615V24.9297H48.0263C46.8891 23.5722 45.1813 22.709 43.2718 22.709ZM50.5615 19.9865V17.7664H49.0519C48.4736 17.7664 48.0047 18.2353 48.0047 18.8137V18.9393C48.0047 19.5177 48.4736 19.9865 49.0519 19.9865H50.5615ZM48.8433 26.1864C49.2456 27.0081 49.4714 27.932 49.4714 28.9086C49.4714 28.9929 49.4697 29.0769 49.4664 29.1605H51.9837C52.0993 29.1605 52.1931 29.0667 52.1931 28.951V26.3958C52.1931 26.2801 52.0993 26.1864 51.9837 26.1864H48.8433ZM42.9606 8.29964L45.5037 13.4101H37.7435C37.6278 13.4101 37.534 13.3163 37.534 13.2006V8.50908C37.534 8.39341 37.6278 8.29964 37.7435 8.29964H42.9606ZM38.3289 28.9086C38.3289 26.1787 40.5419 23.9657 43.2718 23.9657C46.0017 23.9657 48.2147 26.1787 48.2147 28.9086C48.2147 31.6384 46.0017 33.8514 43.2718 33.8514C40.5419 33.8514 38.3289 31.6384 38.3289 28.9086ZM10.2623 27.2332C9.33692 27.2332 8.58675 27.9834 8.58675 28.9088C8.58675 29.8342 9.33692 30.5843 10.2623 30.5843C11.1877 30.5843 11.9379 29.8342 11.9379 28.9088C11.9379 27.9834 11.1877 27.2332 10.2623 27.2332ZM7.33008 28.9088C7.33008 27.2894 8.64288 25.9766 10.2623 25.9766C11.8817 25.9766 13.1945 27.2894 13.1945 28.9088C13.1945 30.5282 11.8817 31.841 10.2623 31.841C8.64288 31.841 7.33008 30.5282 7.33008 28.9088ZM41.5965 28.9088C41.5965 27.9834 42.3467 27.2332 43.2721 27.2332C44.1975 27.2332 44.9476 27.9834 44.9476 28.9088C44.9476 29.8342 44.1975 30.5843 43.2721 30.5843C42.3467 30.5843 41.5965 29.8342 41.5965 28.9088ZM43.2721 25.9766C41.6526 25.9766 40.3398 27.2894 40.3398 28.9088C40.3398 30.5282 41.6526 31.841 43.2721 31.841C44.8915 31.841 46.2043 30.5282 46.2043 28.9088C46.2043 27.2894 44.8915 25.9766 43.2721 25.9766ZM36.0664 18.0595C36.0664 17.7125 36.3477 17.4312 36.6947 17.4312H39.1243C39.4713 17.4312 39.7526 17.7125 39.7526 18.0595C39.7526 18.4065 39.4713 18.6878 39.1243 18.6878H36.6947C36.3477 18.6878 36.0664 18.4065 36.0664 18.0595Z" fill="#323232"/>
</svg>
