<svg width="21" height="18" viewBox="0 0 21 18" fill="none" xmlns="http://www.w3.org/2000/svg">
<path fill-rule="evenodd" clip-rule="evenodd" d="M0 1.57348C0 0.79021 0.634969 0.155243 1.41824 0.155243H18.7962C19.5795 0.155243 20.2144 0.790212 20.2144 1.57348V6.15135H19.4256V15.0019C19.4256 16.6577 18.0833 18 16.4276 18H3.78907C2.13329 18 0.791016 16.6577 0.791016 15.0019V6.15135H0V1.57348ZM1.41824 1.41191C1.32901 1.41191 1.25667 1.48425 1.25667 1.57348V4.89468H18.9578V1.57348C18.9578 1.48425 18.8854 1.41191 18.7962 1.41191H1.41824ZM6.2832 9.37714C6.2832 10.1604 6.91817 10.7954 7.70144 10.7954H12.4888C13.272 10.7954 13.907 10.1604 13.907 9.37714V7.27671H6.2832V9.37714ZM7.70144 9.53871C7.61221 9.53871 7.53987 9.46637 7.53987 9.37714V8.53337H12.6503V9.37714C12.6503 9.46637 12.578 9.53871 12.4888 9.53871H7.70144ZM2.04768 15.0019C2.04768 15.9637 2.82733 16.7433 3.78907 16.7433H16.4276C17.3893 16.7433 18.169 15.9637 18.169 15.0019V6.15137H2.04768V15.0019Z" fill="#323232"/>
</svg>
