<svg width="59" height="26" viewBox="0 0 59 26" fill="none" xmlns="http://www.w3.org/2000/svg">
<path fill-rule="evenodd" clip-rule="evenodd" d="M28.1906 0C27.7973 0 27.4785 0.31882 27.4785 0.712112V7.03711H1.87968C1.4864 7.03711 1.16757 7.35593 1.16757 7.74922V16.9448H0.712112C0.318823 16.9448 0 17.2636 0 17.6569V20.9861C0 21.3794 0.318823 21.6982 0.712112 21.6982H6.46619C6.48586 21.6982 6.50532 21.6973 6.52453 21.6956C7.05976 23.7228 8.90608 25.2174 11.1015 25.2174C13.296 25.2174 15.1417 23.724 15.6778 21.6981H29.4474C29.7944 21.6981 30.0757 21.4168 30.0757 21.0697C30.0757 20.7227 29.7944 20.4414 29.4474 20.4414H19.2674C19.2683 20.4277 19.2688 20.4139 19.2688 20.4C19.2688 19.5225 19.129 18.6777 18.8704 17.8866H35.4179C35.1593 18.6777 35.0195 19.5225 35.0195 20.4C35.0195 20.4139 35.02 20.4277 35.0209 20.4414H32.2143C31.8673 20.4414 31.5859 20.7227 31.5859 21.0697C31.5859 21.4168 31.8673 21.6981 32.2143 21.6981L38.3301 21.6981C38.368 21.6981 38.4052 21.6947 38.4413 21.6883C38.974 23.7191 40.8221 25.2173 43.0201 25.2173C45.2144 25.2173 47.0599 23.7242 47.5962 21.6987H58.2256C58.6189 21.6987 58.9377 21.3798 58.9377 20.9865V17.426C58.9377 17.0327 58.6189 16.7139 58.2256 16.7139H56.7174V10.0599C56.7174 9.85553 56.6386 9.64459 56.4727 9.48699C55.9016 8.94431 55.095 8.53813 54.2155 8.22659C53.3268 7.91179 52.3137 7.67653 51.2865 7.50199C49.2322 7.15295 47.0624 7.03711 45.591 7.03711H45.5739H45.5569H45.5399H45.5229H45.5059H45.489H45.472H45.4552H45.4383H45.4215H45.4047H45.3879H45.3711H45.3544H45.3377H45.321H45.3044H45.2878H45.2712H45.2546H45.2381H45.2216H45.2051H45.1887H45.1722H45.1558H45.1395H45.1231H45.1068H45.0905H45.0743H45.058H45.0418H45.0257H45.0095H44.9934H44.9773H44.9612H44.9452H44.9292H44.9132H44.8972H44.8813H44.8654H44.8495H44.8337H44.8179H44.8021H44.7863H44.7706H44.7549H44.7392H44.7235H44.7079H44.6923H44.6768H44.6612H44.6457H44.6302H44.6148H44.5994H44.584H44.5686H44.5533H44.538H44.5227H44.5074H44.4922H44.4841C44.4766 6.92331 44.438 6.81017 44.3662 6.71095L40.0757 0.780145C39.7212 0.290161 39.1532 0 38.5484 0H31.5424H28.1906ZM55.4607 16.7139V15.2472H52.134C51.5764 15.2472 51.2351 14.6353 51.5282 14.1609L53.184 11.48C53.3137 11.27 53.543 11.1421 53.7899 11.1421H55.4607V10.2694C55.0722 9.95261 54.5081 9.66343 53.7959 9.41114C52.9976 9.12836 52.0602 8.90812 51.076 8.7409C49.1075 8.40644 47.0105 8.29378 45.591 8.29378H45.5739H45.5569H45.5399H45.5229H45.5059H45.489H45.472H45.4552H45.4383H45.4215H45.4047H45.3879H45.3711H45.3544H45.3377H45.321H45.3044H45.2878H45.2712H45.2546H45.2381H45.2216H45.2051H45.1887H45.1722H45.1558H45.1395H45.1231H45.1068H45.0905H45.0743H45.058H45.0418H45.0257H45.0095H44.9934H44.9773H44.9612H44.9452H44.9292H44.9132H44.8972H44.8813H44.8654H44.8495H44.8337H44.8179H44.8021H44.7863H44.7706H44.7549H44.7392H44.7235H44.7079H44.6923H44.6768H44.6612H44.6457H44.6302H44.6148H44.5994H44.584H44.5686H44.5533H44.538H44.5227H44.5074H44.4922H44.477H44.4618H44.4467H44.4316H44.4165H44.4014H44.3864H44.3714H44.3565H44.3415H44.3266H44.3117H44.2969H44.282H44.2673H44.2525H44.2377H44.223H44.2084H44.1937H44.1791H44.1645H44.1499H44.1354H44.1209H44.1064H44.092H44.0775H44.0632H44.0488H44.0345H44.0202H44.0059H43.9917H43.9774H43.9633H43.9491H43.935H43.9209H43.9068H43.8928H43.8788H43.8648H43.8508H43.8369H43.823H43.8092H43.7954H43.7816H43.7678H43.754H43.7403H43.7267H43.713H43.6994H43.6858H43.6722H43.6587H43.6452H43.6317H43.6183H43.6049H43.5915H43.5781H43.5648H43.5515H43.5383H43.525H43.5118H43.4987H43.4855H43.4724H43.4594H43.4463H43.4333H43.4203H43.4073H43.3944H43.3815H43.3687H43.3558H43.343H43.3302H43.3175H43.3048H43.2921H43.2795H43.2668H43.2542H43.2417H43.2292H43.2167H43.2042H43.1918H43.1794H43.167H43.1546H43.1423H43.1301H43.1178H43.1056H43.0934H43.0812H43.0691H43.057H43.045H43.0329H43.0209H43.009H42.997H42.9851H42.9733H42.9614H42.9496H42.9378H42.9261H42.9144H42.9027H42.891H42.8794H42.8678H42.8562H42.8447H42.8332H42.8218H42.8103H42.7989H42.7875H42.7762H42.7649H42.7536H42.7424H42.7312H42.72H42.7089H42.6977H42.6867H42.6756H42.6646H42.6536H42.6427H42.6317H42.6208H42.61H42.5992H42.5884H42.5776H42.5669H42.5562H42.5455H42.5349H42.5243H42.5137H42.5032H42.4927H42.4822H42.4718H42.4614H42.451H42.4407H42.4304H42.4201H42.4099H42.3997H42.3895H42.3793H42.3692H42.3591H42.3491H42.3391H42.3291H42.3192H42.3093H42.2994H42.2895H42.2797H42.2699H42.2602H42.2505H42.2408H42.2312H42.2215H42.212H42.2024H42.1929H42.1834H42.174H42.1646H42.1552H42.1458H42.1365H42.1272H42.118H42.1088H42.0996H42.0904H42.0813H42.0723H42.0632H42.0542H42.0452H42.0363H42.0274H42.0185H42.0096H42.0008H41.9921H41.9833H41.9746H41.9659H41.9573H41.9487H41.9401H41.9316H41.9231H41.9146H41.9062H41.8978H41.8894H41.8811H41.8728H41.8645H41.8563H41.8481H41.8399H41.8318H41.8237H41.8156H41.8076H41.7996H41.7917H41.7837H41.7758H41.768H41.7602H41.7524H41.7446H41.7369H41.7293H41.7216H41.714H41.7064H41.6989H41.6914H41.6839H41.6765H41.6691H41.6617H41.6544H41.6471H41.6398H41.6326H41.6254H41.6182H41.6111H41.604H41.597H41.59H41.583H41.576H41.5691H41.5623H41.5554H41.5486H41.5419H41.5351H41.5284H41.5218H41.5151H41.5085H41.502H41.4955H41.489H41.4825H41.4761H41.4697H41.4634H41.4571H41.4508H41.4446H41.4384H41.4322H41.4261H41.42H41.414H41.4079H41.402H41.396H41.3901H41.3842H41.3784H41.3726H41.3668H41.3611H41.3554H41.3497H41.3441H41.3385H41.333H41.3274H41.322H41.3165H41.3111H41.3057H41.3004H41.2951H41.2899H41.2846H41.2794H41.2743H41.2692H41.2641H41.2591H41.2541H41.2491H41.2442H41.2393H41.2344H41.2296H41.2248H41.2201H41.2153H41.2107H41.206H41.2014H41.1969H41.1923H41.1879H41.1834H41.179H41.1746H41.1703H41.166H41.1617H41.1575H41.1533H41.1491H41.145H41.1409H41.1369H41.1329H41.1289H41.125H41.1211H41.1172H41.1134H41.1096H41.1059H41.1022H41.0985H41.0949H41.0913H41.0877H41.0842H41.0807H41.0773H41.0739H41.0705H41.0672H41.0639H41.0607H41.0574H41.0543H41.0511H41.048H41.045H41.0419H41.039H41.036H41.0331H41.0302H41.0274H41.0246H41.0218H41.0191H41.0164H41.0138H41.0112H41.0086H41.0061H41.0036H41.0011H40.9987H40.9964H40.994H40.9917H40.9895H40.9872H40.9851H40.9829H40.9808H40.9787H40.9767H40.9747H40.9728H40.9709H40.969H40.9672H40.9654H40.9636H40.9619H40.9602H40.9586H40.957H40.9554H40.9539H40.9524H40.951H40.9496H40.9482H40.9469H40.9456H40.9443H40.9431H40.9419H40.9408H40.9397H40.9387H40.9377H40.9367H40.9357H40.9349H40.934H40.9332H40.9324H40.9317H40.931H40.9303H40.9297H40.9291H40.9286H40.9281H40.9276H40.9272H40.9268H40.9265H40.9262H40.9259H40.9257H40.9255H40.9254H40.9253H40.9252C40.5782 8.29378 40.2969 8.01246 40.2969 7.66544C40.2969 7.31842 40.5782 7.03711 40.9252 7.03711H40.9253H40.9254H40.9255H40.9257H40.9259H40.9262H40.9265H40.9268H40.9272H40.9276H40.9281H40.9286H40.9291H40.9297H40.9303H40.931H40.9317H40.9324H40.9332H40.934H40.9349H40.9357H40.9367H40.9377H40.9387H40.9397H40.9408H40.9419H40.9431H40.9443H40.9456H40.9469H40.9482H40.9496H40.951H40.9524H40.9539H40.9554H40.957H40.9586H40.9602H40.9619H40.9636H40.9654H40.9672H40.969H40.9709H40.9728H40.9747H40.9767H40.9787H40.9808H40.9829H40.9851H40.9872H40.9895H40.9917H40.994H40.9964H40.9987H41.0011H41.0036H41.0061H41.0086H41.0112H41.0138H41.0164H41.0191H41.0218H41.0246H41.0274H41.0302H41.0331H41.036H41.039H41.0419H41.045H41.048H41.0511H41.0543H41.0574H41.0607H41.0639H41.0672H41.0705H41.0739H41.0773H41.0807H41.0842H41.0877H41.0913H41.0949H41.0985H41.1022H41.1059H41.1096H41.1134H41.1172H41.1211H41.125H41.1289H41.1329H41.1369H41.1409H41.145H41.1491H41.1533H41.1575H41.1617H41.166H41.1703H41.1746H41.179H41.1834H41.1879H41.1923H41.1969H41.2014H41.206H41.2107H41.2153H41.2201H41.2248H41.2296H41.2344H41.2393H41.2442H41.2491H41.2541H41.2591H41.2641H41.2692H41.2743H41.2794H41.2846H41.2899H41.2951H41.3004H41.3057H41.3111H41.3165H41.322H41.3274H41.333H41.3385H41.3441H41.3497H41.3554H41.3611H41.3668H41.3726H41.3784H41.3842H41.3901H41.396H41.402H41.4079H41.414H41.42H41.4261H41.4322H41.4384H41.4446H41.4508H41.4571H41.4634H41.4697H41.4761H41.4825H41.489H41.4955H41.502H41.5085H41.5151H41.5218H41.5284H41.5351H41.5419H41.5486H41.5554H41.5623H41.5691H41.576H41.583H41.59H41.597H41.604H41.6111H41.6182H41.6254H41.6326H41.6398H41.6471H41.6544H41.6617H41.6691H41.6765H41.6839H41.6914H41.6989H41.7064H41.714H41.7216H41.7293H41.7369H41.7446H41.7524H41.7602H41.768H41.7758H41.7837H41.7917H41.7996H41.8076H41.8156H41.8237H41.8318H41.8399H41.8481H41.8563H41.8645H41.8728H41.8811H41.8894H41.8978H41.9062H41.9146H41.9231H41.9316H41.9401H41.9487H41.9573H41.9659H41.9746H41.9833H41.9921H42.0008H42.0096H42.0185H42.0274H42.0363H42.0452H42.0542H42.0632H42.0723H42.0813H42.0904H42.0996H42.1088H42.118H42.1272H42.1365H42.1458H42.1552H42.1646H42.174H42.1834H42.1929H42.2024H42.212H42.2215H42.2312H42.2408H42.2505H42.2602H42.2699H42.2797H42.2895H42.2994H42.3093H42.3192H42.3291H42.3391H42.3491H42.3591H42.3692H42.3793H42.3895H42.3997H42.4099H42.4201H42.4304H42.4407H42.451H42.4614H42.4718H42.4822H42.4927H42.5032H42.5137H42.5243H42.5349H42.5455H42.5562H42.5669H42.5776H42.5884H42.5992H42.61H42.6208H42.6317H42.6427H42.6536H42.6646H42.6756H42.6867H42.6977H42.7089H42.72H42.7312H42.7424H42.7536H42.7649H42.7762H42.7875H42.7989H42.8103H42.8218H42.8332H42.8447H42.8562H42.8678H42.8794H42.891H42.9027H42.9144H42.9261H42.9378H42.9496H42.9614H42.9733H42.9851H42.997H43.009H43.0209H43.0329H43.045H43.0511L39.0575 1.51672C38.9394 1.35339 38.75 1.25667 38.5484 1.25667H32.1707V7.03711H37.4068C37.7539 7.03711 38.0352 7.31842 38.0352 7.66544C38.0352 8.01246 37.7539 8.29378 37.4068 8.29378H31.5598L31.5424 8.29402L31.525 8.29378H28.1243L28.1068 8.29402L28.0894 8.29378H2.42424V10.6816H3.60272C3.99601 10.6816 4.31483 11.0005 4.31483 11.3938V14.5354C4.31483 14.9287 3.99601 15.2475 3.60272 15.2475H2.42424V17.0068H3.844C5.12662 14.2369 7.93101 12.3154 11.1842 12.3154C14.2876 12.3154 16.9827 14.0641 18.3377 16.6299H35.9506C37.3056 14.0641 40.0007 12.3154 43.1041 12.3154C46.2413 12.3154 48.9611 14.1023 50.3013 16.7139H55.4607ZM2.42424 13.9909H3.05816V11.9383H2.42424V13.9909ZM49.2754 17.4747C49.2944 17.5631 49.3319 17.6446 49.3838 17.7148C49.7366 18.539 49.932 19.4467 49.932 20.4C49.932 20.4141 49.9325 20.4281 49.9334 20.442H47.7534C47.7309 17.847 45.6204 15.7504 43.0201 15.7504C40.4201 15.7504 38.3096 17.8467 38.2869 20.4414H36.2749C36.2754 20.4328 36.2758 20.4241 36.276 20.4154L36.2762 20.4C36.2762 16.6291 39.3332 13.5721 43.1041 13.5721C45.8282 13.5721 48.1797 15.1674 49.2754 17.4747ZM51.1873 20.442L51.1882 20.4253C51.1885 20.4169 51.1887 20.4085 51.1887 20.4C51.1887 19.5535 51.0586 18.7374 50.8173 17.9705H57.6811V20.442H51.1873ZM18.0134 20.4414C18.0125 20.4277 18.0121 20.4139 18.0121 20.4C18.0121 16.6291 14.9551 13.5721 11.1842 13.5721C7.41323 13.5721 4.35628 16.6291 4.35628 20.4C4.35628 20.414 4.35582 20.4278 4.35492 20.4416H6.36822C6.39096 17.8469 8.50141 15.7505 11.1015 15.7505C13.7015 15.7505 15.8119 17.8468 15.8348 20.4414H18.0134ZM30.9141 1.25667V7.03711H28.7352V1.25667H30.9141ZM3.38491 18.2635H1.25667V20.4416H3.10096C3.10006 20.4278 3.09961 20.414 3.09961 20.4C3.09961 19.6604 3.19891 18.9441 3.38491 18.2635ZM55.4607 12.3988H54.0936L53.1104 13.9905H55.4607V12.3988ZM43.0201 17.007C41.1 17.007 39.5434 18.5636 39.5434 20.4838C39.5434 22.404 41.1 23.9606 43.0201 23.9606C44.9403 23.9606 46.4969 22.404 46.4969 20.4838C46.4969 18.5636 44.9403 17.007 43.0201 17.007ZM44.1926 20.3999C44.1926 21.0477 43.6675 21.5728 43.0197 21.5728C42.372 21.5728 41.8468 21.0477 41.8468 20.3999C41.8468 19.7522 42.372 19.2271 43.0197 19.2271C43.6675 19.2271 44.1926 19.7522 44.1926 20.3999ZM11.1015 17.0072C9.18131 17.0072 7.6247 18.5638 7.6247 20.4839C7.6247 22.4041 9.18131 23.9607 11.1015 23.9607C13.0217 23.9607 14.5783 22.4041 14.5783 20.4839C14.5783 18.5638 13.0217 17.0072 11.1015 17.0072ZM12.2726 20.4001C12.2726 21.0478 11.7475 21.573 11.0998 21.573C10.452 21.573 9.92687 21.0478 9.92687 20.4001C9.92687 19.7523 10.452 19.2272 11.0998 19.2272C11.7475 19.2272 12.2726 19.7523 12.2726 20.4001ZM32.7578 10.3046C32.7578 9.95758 33.0391 9.67627 33.3861 9.67627H36.067C36.4141 9.67627 36.6954 9.95758 36.6954 10.3046C36.6954 10.6516 36.4141 10.9329 36.067 10.9329H33.3861C33.0391 10.9329 32.7578 10.6516 32.7578 10.3046Z" fill="#323232"/>
</svg>
