<svg width="64" height="31" viewBox="0 0 64 31" fill="none" xmlns="http://www.w3.org/2000/svg">
<g clip-path="url(#clip0_503_5590)">
<path fill-rule="evenodd" clip-rule="evenodd" d="M28.1906 5C27.7973 5 27.4785 5.31882 27.4785 5.71211V12.0371H1.87968C1.4864 12.0371 1.16757 12.3559 1.16757 12.7492V21.9448H0.712112C0.318823 21.9448 0 22.2636 0 22.6569V25.9861C0 26.3794 0.318823 26.6982 0.712112 26.6982H6.46619C6.48586 26.6982 6.50532 26.6973 6.52453 26.6956C7.05976 28.7228 8.90608 30.2174 11.1015 30.2174C13.296 30.2174 15.1417 28.724 15.6778 26.6981H29.4474C29.7944 26.6981 30.0757 26.4168 30.0757 26.0697C30.0757 25.7227 29.7944 25.4414 29.4474 25.4414H19.2674C19.2683 25.4277 19.2688 25.4139 19.2688 25.4C19.2688 24.5225 19.129 23.6777 18.8704 22.8866H35.4179C35.1593 23.6777 35.0195 24.5225 35.0195 25.4C35.0195 25.4139 35.02 25.4277 35.0209 25.4414H32.2143C31.8673 25.4414 31.5859 25.7227 31.5859 26.0697C31.5859 26.4168 31.8673 26.6981 32.2143 26.6981L38.3301 26.6981C38.368 26.6981 38.4052 26.6947 38.4413 26.6883C38.974 28.7191 40.8221 30.2173 43.0201 30.2173C45.2144 30.2173 47.0599 28.7242 47.5962 26.6987H58.2256C58.6189 26.6987 58.9377 26.3798 58.9377 25.9865V22.426C58.9377 22.0327 58.6189 21.7139 58.2256 21.7139H56.7174V15.0599C56.7174 14.8555 56.6386 14.6446 56.4727 14.487C55.9016 13.9443 55.095 13.5381 54.2155 13.2266C53.3268 12.9118 52.3137 12.6765 51.2865 12.502C49.2322 12.1529 47.0624 12.0371 45.591 12.0371H45.5739H45.5569H45.5399H45.5229H45.5059H45.489H45.472H45.4552H45.4383H45.4215H45.4047H45.3879H45.3711H45.3544H45.3377H45.321H45.3044H45.2878H45.2712H45.2546H45.2381H45.2216H45.2051H45.1887H45.1722H45.1558H45.1395H45.1231H45.1068H45.0905H45.0743H45.058H45.0418H45.0257H45.0095H44.9934H44.9773H44.9612H44.9452H44.9292H44.9132H44.8972H44.8813H44.8654H44.8495H44.8337H44.8179H44.8021H44.7863H44.7706H44.7549H44.7392H44.7235H44.7079H44.6923H44.6768H44.6612H44.6457H44.6302H44.6148H44.5994H44.584H44.5686H44.5533H44.538H44.5227H44.5074H44.4922H44.4841C44.4766 11.9233 44.438 11.8102 44.3662 11.7109L40.0757 5.78014C39.7212 5.29016 39.1532 5 38.5484 5H31.5424H28.1906ZM55.4607 21.7139V20.2472H52.134C51.5764 20.2472 51.2351 19.6353 51.5282 19.1609L53.184 16.48C53.3137 16.27 53.543 16.1421 53.7899 16.1421H55.4607V15.2694C55.0722 14.9526 54.5081 14.6634 53.7959 14.4111C52.9976 14.1284 52.0602 13.9081 51.076 13.7409C49.1075 13.4064 47.0105 13.2938 45.591 13.2938H45.5739H45.5569H45.5399H45.5229H45.5059H45.489H45.472H45.4552H45.4383H45.4215H45.4047H45.3879H45.3711H45.3544H45.3377H45.321H45.3044H45.2878H45.2712H45.2546H45.2381H45.2216H45.2051H45.1887H45.1722H45.1558H45.1395H45.1231H45.1068H45.0905H45.0743H45.058H45.0418H45.0257H45.0095H44.9934H44.9773H44.9612H44.9452H44.9292H44.9132H44.8972H44.8813H44.8654H44.8495H44.8337H44.8179H44.8021H44.7863H44.7706H44.7549H44.7392H44.7235H44.7079H44.6923H44.6768H44.6612H44.6457H44.6302H44.6148H44.5994H44.584H44.5686H44.5533H44.538H44.5227H44.5074H44.4922H44.477H44.4618H44.4467H44.4316H44.4165H44.4014H44.3864H44.3714H44.3565H44.3415H44.3266H44.3117H44.2969H44.282H44.2673H44.2525H44.2377H44.223H44.2084H44.1937H44.1791H44.1645H44.1499H44.1354H44.1209H44.1064H44.092H44.0775H44.0632H44.0488H44.0345H44.0202H44.0059H43.9917H43.9774H43.9633H43.9491H43.935H43.9209H43.9068H43.8928H43.8788H43.8648H43.8508H43.8369H43.823H43.8092H43.7954H43.7816H43.7678H43.754H43.7403H43.7267H43.713H43.6994H43.6858H43.6722H43.6587H43.6452H43.6317H43.6183H43.6049H43.5915H43.5781H43.5648H43.5515H43.5383H43.525H43.5118H43.4987H43.4855H43.4724H43.4594H43.4463H43.4333H43.4203H43.4073H43.3944H43.3815H43.3687H43.3558H43.343H43.3302H43.3175H43.3048H43.2921H43.2795H43.2668H43.2542H43.2417H43.2292H43.2167H43.2042H43.1918H43.1794H43.167H43.1546H43.1423H43.1301H43.1178H43.1056H43.0934H43.0812H43.0691H43.057H43.045H43.0329H43.0209H43.009H42.997H42.9851H42.9733H42.9614H42.9496H42.9378H42.9261H42.9144H42.9027H42.891H42.8794H42.8678H42.8562H42.8447H42.8332H42.8218H42.8103H42.7989H42.7875H42.7762H42.7649H42.7536H42.7424H42.7312H42.72H42.7089H42.6977H42.6867H42.6756H42.6646H42.6536H42.6427H42.6317H42.6208H42.61H42.5992H42.5884H42.5776H42.5669H42.5562H42.5455H42.5349H42.5243H42.5137H42.5032H42.4927H42.4822H42.4718H42.4614H42.451H42.4407H42.4304H42.4201H42.4099H42.3997H42.3895H42.3793H42.3692H42.3591H42.3491H42.3391H42.3291H42.3192H42.3093H42.2994H42.2895H42.2797H42.2699H42.2602H42.2505H42.2408H42.2312H42.2215H42.212H42.2024H42.1929H42.1834H42.174H42.1646H42.1552H42.1458H42.1365H42.1272H42.118H42.1088H42.0996H42.0904H42.0813H42.0723H42.0632H42.0542H42.0452H42.0363H42.0274H42.0185H42.0096H42.0008H41.9921H41.9833H41.9746H41.9659H41.9573H41.9487H41.9401H41.9316H41.9231H41.9146H41.9062H41.8978H41.8894H41.8811H41.8728H41.8645H41.8563H41.8481H41.8399H41.8318H41.8237H41.8156H41.8076H41.7996H41.7917H41.7837H41.7758H41.768H41.7602H41.7524H41.7446H41.7369H41.7293H41.7216H41.714H41.7064H41.6989H41.6914H41.6839H41.6765H41.6691H41.6617H41.6544H41.6471H41.6398H41.6326H41.6254H41.6182H41.6111H41.604H41.597H41.59H41.583H41.576H41.5691H41.5623H41.5554H41.5486H41.5419H41.5351H41.5284H41.5218H41.5151H41.5085H41.502H41.4955H41.489H41.4825H41.4761H41.4697H41.4634H41.4571H41.4508H41.4446H41.4384H41.4322H41.4261H41.42H41.414H41.4079H41.402H41.396H41.3901H41.3842H41.3784H41.3726H41.3668H41.3611H41.3554H41.3497H41.3441H41.3385H41.333H41.3274H41.322H41.3165H41.3111H41.3057H41.3004H41.2951H41.2899H41.2846H41.2794H41.2743H41.2692H41.2641H41.2591H41.2541H41.2491H41.2442H41.2393H41.2344H41.2296H41.2248H41.2201H41.2153H41.2107H41.206H41.2014H41.1969H41.1923H41.1879H41.1834H41.179H41.1746H41.1703H41.166H41.1617H41.1575H41.1533H41.1491H41.145H41.1409H41.1369H41.1329H41.1289H41.125H41.1211H41.1172H41.1134H41.1096H41.1059H41.1022H41.0985H41.0949H41.0913H41.0877H41.0842H41.0807H41.0773H41.0739H41.0705H41.0672H41.0639H41.0607H41.0574H41.0543H41.0511H41.048H41.045H41.0419H41.039H41.036H41.0331H41.0302H41.0274H41.0246H41.0218H41.0191H41.0164H41.0138H41.0112H41.0086H41.0061H41.0036H41.0011H40.9987H40.9964H40.994H40.9917H40.9895H40.9872H40.9851H40.9829H40.9808H40.9787H40.9767H40.9747H40.9728H40.9709H40.969H40.9672H40.9654H40.9636H40.9619H40.9602H40.9586H40.957H40.9554H40.9539H40.9524H40.951H40.9496H40.9482H40.9469H40.9456H40.9443H40.9431H40.9419H40.9408H40.9397H40.9387H40.9377H40.9367H40.9357H40.9349H40.934H40.9332H40.9324H40.9317H40.931H40.9303H40.9297H40.9291H40.9286H40.9281H40.9276H40.9272H40.9268H40.9265H40.9262H40.9259H40.9257H40.9255H40.9254H40.9253H40.9252C40.5782 13.2938 40.2969 13.0125 40.2969 12.6654C40.2969 12.3184 40.5782 12.0371 40.9252 12.0371H40.9253H40.9254H40.9255H40.9257H40.9259H40.9262H40.9265H40.9268H40.9272H40.9276H40.9281H40.9286H40.9291H40.9297H40.9303H40.931H40.9317H40.9324H40.9332H40.934H40.9349H40.9357H40.9367H40.9377H40.9387H40.9397H40.9408H40.9419H40.9431H40.9443H40.9456H40.9469H40.9482H40.9496H40.951H40.9524H40.9539H40.9554H40.957H40.9586H40.9602H40.9619H40.9636H40.9654H40.9672H40.969H40.9709H40.9728H40.9747H40.9767H40.9787H40.9808H40.9829H40.9851H40.9872H40.9895H40.9917H40.994H40.9964H40.9987H41.0011H41.0036H41.0061H41.0086H41.0112H41.0138H41.0164H41.0191H41.0218H41.0246H41.0274H41.0302H41.0331H41.036H41.039H41.0419H41.045H41.048H41.0511H41.0543H41.0574H41.0607H41.0639H41.0672H41.0705H41.0739H41.0773H41.0807H41.0842H41.0877H41.0913H41.0949H41.0985H41.1022H41.1059H41.1096H41.1134H41.1172H41.1211H41.125H41.1289H41.1329H41.1369H41.1409H41.145H41.1491H41.1533H41.1575H41.1617H41.166H41.1703H41.1746H41.179H41.1834H41.1879H41.1923H41.1969H41.2014H41.206H41.2107H41.2153H41.2201H41.2248H41.2296H41.2344H41.2393H41.2442H41.2491H41.2541H41.2591H41.2641H41.2692H41.2743H41.2794H41.2846H41.2899H41.2951H41.3004H41.3057H41.3111H41.3165H41.322H41.3274H41.333H41.3385H41.3441H41.3497H41.3554H41.3611H41.3668H41.3726H41.3784H41.3842H41.3901H41.396H41.402H41.4079H41.414H41.42H41.4261H41.4322H41.4384H41.4446H41.4508H41.4571H41.4634H41.4697H41.4761H41.4825H41.489H41.4955H41.502H41.5085H41.5151H41.5218H41.5284H41.5351H41.5419H41.5486H41.5554H41.5623H41.5691H41.576H41.583H41.59H41.597H41.604H41.6111H41.6182H41.6254H41.6326H41.6398H41.6471H41.6544H41.6617H41.6691H41.6765H41.6839H41.6914H41.6989H41.7064H41.714H41.7216H41.7293H41.7369H41.7446H41.7524H41.7602H41.768H41.7758H41.7837H41.7917H41.7996H41.8076H41.8156H41.8237H41.8318H41.8399H41.8481H41.8563H41.8645H41.8728H41.8811H41.8894H41.8978H41.9062H41.9146H41.9231H41.9316H41.9401H41.9487H41.9573H41.9659H41.9746H41.9833H41.9921H42.0008H42.0096H42.0185H42.0274H42.0363H42.0452H42.0542H42.0632H42.0723H42.0813H42.0904H42.0996H42.1088H42.118H42.1272H42.1365H42.1458H42.1552H42.1646H42.174H42.1834H42.1929H42.2024H42.212H42.2215H42.2312H42.2408H42.2505H42.2602H42.2699H42.2797H42.2895H42.2994H42.3093H42.3192H42.3291H42.3391H42.3491H42.3591H42.3692H42.3793H42.3895H42.3997H42.4099H42.4201H42.4304H42.4407H42.451H42.4614H42.4718H42.4822H42.4927H42.5032H42.5137H42.5243H42.5349H42.5455H42.5562H42.5669H42.5776H42.5884H42.5992H42.61H42.6208H42.6317H42.6427H42.6536H42.6646H42.6756H42.6867H42.6977H42.7089H42.72H42.7312H42.7424H42.7536H42.7649H42.7762H42.7875H42.7989H42.8103H42.8218H42.8332H42.8447H42.8562H42.8678H42.8794H42.891H42.9027H42.9144H42.9261H42.9378H42.9496H42.9614H42.9733H42.9851H42.997H43.009H43.0209H43.0329H43.045H43.0511L39.0575 6.51672C38.9394 6.35339 38.75 6.25667 38.5484 6.25667H32.1707V12.0371H37.4068C37.7539 12.0371 38.0352 12.3184 38.0352 12.6654C38.0352 13.0125 37.7539 13.2938 37.4068 13.2938H31.5598L31.5424 13.294L31.525 13.2938H28.1243L28.1068 13.294L28.0894 13.2938H2.42424V15.6816H3.60272C3.99601 15.6816 4.31483 16.0005 4.31483 16.3938V19.5354C4.31483 19.9287 3.99601 20.2475 3.60272 20.2475H2.42424V22.0068H3.844C5.12662 19.2369 7.93101 17.3154 11.1842 17.3154C14.2876 17.3154 16.9827 19.0641 18.3377 21.6299H35.9506C37.3056 19.0641 40.0007 17.3154 43.1041 17.3154C46.2413 17.3154 48.9611 19.1023 50.3013 21.7139H55.4607ZM2.42424 18.9909H3.05816V16.9383H2.42424V18.9909ZM49.2754 22.4747C49.2944 22.5631 49.3319 22.6446 49.3838 22.7148C49.7366 23.539 49.932 24.4467 49.932 25.4C49.932 25.4141 49.9325 25.4281 49.9334 25.442H47.7534C47.7309 22.847 45.6204 20.7504 43.0201 20.7504C40.4201 20.7504 38.3096 22.8467 38.2869 25.4414H36.2749C36.2754 25.4328 36.2758 25.4241 36.276 25.4154L36.2762 25.4C36.2762 21.6291 39.3332 18.5721 43.1041 18.5721C45.8282 18.5721 48.1797 20.1674 49.2754 22.4747ZM51.1873 25.442L51.1882 25.4253C51.1885 25.4169 51.1887 25.4085 51.1887 25.4C51.1887 24.5535 51.0586 23.7374 50.8173 22.9705H57.6811V25.442H51.1873ZM18.0134 25.4414C18.0125 25.4277 18.0121 25.4139 18.0121 25.4C18.0121 21.6291 14.9551 18.5721 11.1842 18.5721C7.41323 18.5721 4.35628 21.6291 4.35628 25.4C4.35628 25.414 4.35582 25.4278 4.35492 25.4416H6.36822C6.39096 22.8469 8.50141 20.7505 11.1015 20.7505C13.7015 20.7505 15.8119 22.8468 15.8348 25.4414H18.0134ZM30.9141 6.25667V12.0371H28.7352V6.25667H30.9141ZM3.38491 23.2635H1.25667V25.4416H3.10096C3.10006 25.4278 3.09961 25.414 3.09961 25.4C3.09961 24.6604 3.19891 23.9441 3.38491 23.2635ZM55.4607 17.3988H54.0936L53.1104 18.9905H55.4607V17.3988ZM43.0201 22.007C41.1 22.007 39.5434 23.5636 39.5434 25.4838C39.5434 27.404 41.1 28.9606 43.0201 28.9606C44.9403 28.9606 46.4969 27.404 46.4969 25.4838C46.4969 23.5636 44.9403 22.007 43.0201 22.007ZM44.1926 25.3999C44.1926 26.0477 43.6675 26.5728 43.0197 26.5728C42.372 26.5728 41.8468 26.0477 41.8468 25.3999C41.8468 24.7522 42.372 24.2271 43.0197 24.2271C43.6675 24.2271 44.1926 24.7522 44.1926 25.3999ZM11.1015 22.0072C9.18131 22.0072 7.6247 23.5638 7.6247 25.4839C7.6247 27.4041 9.18131 28.9607 11.1015 28.9607C13.0217 28.9607 14.5783 27.4041 14.5783 25.4839C14.5783 23.5638 13.0217 22.0072 11.1015 22.0072ZM12.2726 25.4001C12.2726 26.0478 11.7475 26.573 11.0998 26.573C10.452 26.573 9.92687 26.0478 9.92687 25.4001C9.92687 24.7523 10.452 24.2272 11.0998 24.2272C11.7475 24.2272 12.2726 24.7523 12.2726 25.4001ZM32.7578 15.3046C32.7578 14.9576 33.0391 14.6763 33.3861 14.6763H36.067C36.4141 14.6763 36.6954 14.9576 36.6954 15.3046C36.6954 15.6516 36.4141 15.9329 36.067 15.9329H33.3861C33.0391 15.9329 32.7578 15.6516 32.7578 15.3046Z" fill="#323232"/>
<mask id="mask0_503_5590" style="mask-type:alpha" maskUnits="userSpaceOnUse" x="5" y="0" width="59" height="26">
<path fill-rule="evenodd" clip-rule="evenodd" d="M33.1906 0C32.7973 0 32.4785 0.31882 32.4785 0.712112V7.03711H6.87968C6.4864 7.03711 6.16757 7.35593 6.16757 7.74922V16.9448H5.71211C5.31882 16.9448 5 17.2636 5 17.6569V20.9861C5 21.3794 5.31882 21.6982 5.71211 21.6982H11.4662C11.4859 21.6982 11.5053 21.6973 11.5245 21.6956C12.0598 23.7228 13.9061 25.2174 16.1015 25.2174C18.296 25.2174 20.1417 23.724 20.6778 21.6981H34.4474C34.7944 21.6981 35.0757 21.4168 35.0757 21.0697C35.0757 20.7227 34.7944 20.4414 34.4474 20.4414H24.2674C24.2683 20.4277 24.2688 20.4139 24.2688 20.4C24.2688 19.5225 24.129 18.6777 23.8704 17.8866H40.4179C40.1593 18.6777 40.0195 19.5225 40.0195 20.4C40.0195 20.4139 40.02 20.4277 40.0209 20.4414H37.2143C36.8673 20.4414 36.5859 20.7227 36.5859 21.0697C36.5859 21.4168 36.8673 21.6981 37.2143 21.6981L43.3301 21.6981C43.368 21.6981 43.4052 21.6947 43.4413 21.6883C43.974 23.7191 45.8221 25.2173 48.0201 25.2173C50.2144 25.2173 52.0599 23.7242 52.5962 21.6987H63.2256C63.6189 21.6987 63.9377 21.3798 63.9377 20.9865V17.426C63.9377 17.0327 63.6189 16.7139 63.2256 16.7139H61.7174V10.0599C61.7174 9.85553 61.6386 9.64459 61.4727 9.48699C60.9016 8.94431 60.095 8.53813 59.2155 8.22659C58.3268 7.91179 57.3137 7.67653 56.2865 7.50199C54.2322 7.15295 52.0624 7.03711 50.591 7.03711H50.5739H50.5569H50.5399H50.5229H50.5059H50.489H50.472H50.4552H50.4383H50.4215H50.4047H50.3879H50.3711H50.3544H50.3377H50.321H50.3044H50.2878H50.2712H50.2546H50.2381H50.2216H50.2051H50.1887H50.1722H50.1558H50.1395H50.1231H50.1068H50.0905H50.0743H50.058H50.0418H50.0257H50.0095H49.9934H49.9773H49.9612H49.9452H49.9292H49.9132H49.8972H49.8813H49.8654H49.8495H49.8337H49.8179H49.8021H49.7863H49.7706H49.7549H49.7392H49.7235H49.7079H49.6923H49.6768H49.6612H49.6457H49.6302H49.6148H49.5994H49.584H49.5686H49.5533H49.538H49.5227H49.5074H49.4922H49.4841C49.4766 6.92331 49.438 6.81017 49.3662 6.71095L45.0757 0.780145C44.7212 0.290161 44.1532 0 43.5484 0H36.5424H33.1906ZM60.4607 16.7139V15.2472H57.134C56.5764 15.2472 56.2351 14.6353 56.5282 14.1609L58.184 11.48C58.3137 11.27 58.543 11.1421 58.7899 11.1421H60.4607V10.2694C60.0722 9.95261 59.5081 9.66343 58.7959 9.41114C57.9976 9.12836 57.0602 8.90812 56.076 8.7409C54.1075 8.40644 52.0105 8.29378 50.591 8.29378H50.5739H50.5569H50.5399H50.5229H50.5059H50.489H50.472H50.4552H50.4383H50.4215H50.4047H50.3879H50.3711H50.3544H50.3377H50.321H50.3044H50.2878H50.2712H50.2546H50.2381H50.2216H50.2051H50.1887H50.1722H50.1558H50.1395H50.1231H50.1068H50.0905H50.0743H50.058H50.0418H50.0257H50.0095H49.9934H49.9773H49.9612H49.9452H49.9292H49.9132H49.8972H49.8813H49.8654H49.8495H49.8337H49.8179H49.8021H49.7863H49.7706H49.7549H49.7392H49.7235H49.7079H49.6923H49.6768H49.6612H49.6457H49.6302H49.6148H49.5994H49.584H49.5686H49.5533H49.538H49.5227H49.5074H49.4922H49.477H49.4618H49.4467H49.4316H49.4165H49.4014H49.3864H49.3714H49.3565H49.3415H49.3266H49.3117H49.2969H49.282H49.2673H49.2525H49.2377H49.223H49.2084H49.1937H49.1791H49.1645H49.1499H49.1354H49.1209H49.1064H49.092H49.0775H49.0632H49.0488H49.0345H49.0202H49.0059H48.9917H48.9774H48.9633H48.9491H48.935H48.9209H48.9068H48.8928H48.8788H48.8648H48.8508H48.8369H48.823H48.8092H48.7954H48.7816H48.7678H48.754H48.7403H48.7267H48.713H48.6994H48.6858H48.6722H48.6587H48.6452H48.6317H48.6183H48.6049H48.5915H48.5781H48.5648H48.5515H48.5383H48.525H48.5118H48.4987H48.4855H48.4724H48.4594H48.4463H48.4333H48.4203H48.4073H48.3944H48.3815H48.3687H48.3558H48.343H48.3302H48.3175H48.3048H48.2921H48.2795H48.2668H48.2542H48.2417H48.2292H48.2167H48.2042H48.1918H48.1794H48.167H48.1546H48.1423H48.1301H48.1178H48.1056H48.0934H48.0812H48.0691H48.057H48.045H48.0329H48.0209H48.009H47.997H47.9851H47.9733H47.9614H47.9496H47.9378H47.9261H47.9144H47.9027H47.891H47.8794H47.8678H47.8562H47.8447H47.8332H47.8218H47.8103H47.7989H47.7875H47.7762H47.7649H47.7536H47.7424H47.7312H47.72H47.7089H47.6977H47.6867H47.6756H47.6646H47.6536H47.6427H47.6317H47.6208H47.61H47.5992H47.5884H47.5776H47.5669H47.5562H47.5455H47.5349H47.5243H47.5137H47.5032H47.4927H47.4822H47.4718H47.4614H47.451H47.4407H47.4304H47.4201H47.4099H47.3997H47.3895H47.3793H47.3692H47.3591H47.3491H47.3391H47.3291H47.3192H47.3093H47.2994H47.2895H47.2797H47.2699H47.2602H47.2505H47.2408H47.2312H47.2215H47.212H47.2024H47.1929H47.1834H47.174H47.1646H47.1552H47.1458H47.1365H47.1272H47.118H47.1088H47.0996H47.0904H47.0813H47.0723H47.0632H47.0542H47.0452H47.0363H47.0274H47.0185H47.0096H47.0008H46.9921H46.9833H46.9746H46.9659H46.9573H46.9487H46.9401H46.9316H46.9231H46.9146H46.9062H46.8978H46.8894H46.8811H46.8728H46.8645H46.8563H46.8481H46.8399H46.8318H46.8237H46.8156H46.8076H46.7996H46.7917H46.7837H46.7758H46.768H46.7602H46.7524H46.7446H46.7369H46.7293H46.7216H46.714H46.7064H46.6989H46.6914H46.6839H46.6765H46.6691H46.6617H46.6544H46.6471H46.6398H46.6326H46.6254H46.6182H46.6111H46.604H46.597H46.59H46.583H46.576H46.5691H46.5623H46.5554H46.5486H46.5419H46.5351H46.5284H46.5218H46.5151H46.5085H46.502H46.4955H46.489H46.4825H46.4761H46.4697H46.4634H46.4571H46.4508H46.4446H46.4384H46.4322H46.4261H46.42H46.414H46.4079H46.402H46.396H46.3901H46.3842H46.3784H46.3726H46.3668H46.3611H46.3554H46.3497H46.3441H46.3385H46.333H46.3274H46.322H46.3165H46.3111H46.3057H46.3004H46.2951H46.2899H46.2846H46.2794H46.2743H46.2692H46.2641H46.2591H46.2541H46.2491H46.2442H46.2393H46.2344H46.2296H46.2248H46.2201H46.2153H46.2107H46.206H46.2014H46.1969H46.1923H46.1879H46.1834H46.179H46.1746H46.1703H46.166H46.1617H46.1575H46.1533H46.1491H46.145H46.1409H46.1369H46.1329H46.1289H46.125H46.1211H46.1172H46.1134H46.1096H46.1059H46.1022H46.0985H46.0949H46.0913H46.0877H46.0842H46.0807H46.0773H46.0739H46.0705H46.0672H46.0639H46.0607H46.0574H46.0543H46.0511H46.048H46.045H46.0419H46.039H46.036H46.0331H46.0302H46.0274H46.0246H46.0218H46.0191H46.0164H46.0138H46.0112H46.0086H46.0061H46.0036H46.0011H45.9987H45.9964H45.994H45.9917H45.9895H45.9872H45.9851H45.9829H45.9808H45.9787H45.9767H45.9747H45.9728H45.9709H45.969H45.9672H45.9654H45.9636H45.9619H45.9602H45.9586H45.957H45.9554H45.9539H45.9524H45.951H45.9496H45.9482H45.9469H45.9456H45.9443H45.9431H45.9419H45.9408H45.9397H45.9387H45.9377H45.9367H45.9357H45.9349H45.934H45.9332H45.9324H45.9317H45.931H45.9303H45.9297H45.9291H45.9286H45.9281H45.9276H45.9272H45.9268H45.9265H45.9262H45.9259H45.9257H45.9255H45.9254H45.9253H45.9252C45.5782 8.29378 45.2969 8.01246 45.2969 7.66544C45.2969 7.31842 45.5782 7.03711 45.9252 7.03711H45.9253H45.9254H45.9255H45.9257H45.9259H45.9262H45.9265H45.9268H45.9272H45.9276H45.9281H45.9286H45.9291H45.9297H45.9303H45.931H45.9317H45.9324H45.9332H45.934H45.9349H45.9357H45.9367H45.9377H45.9387H45.9397H45.9408H45.9419H45.9431H45.9443H45.9456H45.9469H45.9482H45.9496H45.951H45.9524H45.9539H45.9554H45.957H45.9586H45.9602H45.9619H45.9636H45.9654H45.9672H45.969H45.9709H45.9728H45.9747H45.9767H45.9787H45.9808H45.9829H45.9851H45.9872H45.9895H45.9917H45.994H45.9964H45.9987H46.0011H46.0036H46.0061H46.0086H46.0112H46.0138H46.0164H46.0191H46.0218H46.0246H46.0274H46.0302H46.0331H46.036H46.039H46.0419H46.045H46.048H46.0511H46.0543H46.0574H46.0607H46.0639H46.0672H46.0705H46.0739H46.0773H46.0807H46.0842H46.0877H46.0913H46.0949H46.0985H46.1022H46.1059H46.1096H46.1134H46.1172H46.1211H46.125H46.1289H46.1329H46.1369H46.1409H46.145H46.1491H46.1533H46.1575H46.1617H46.166H46.1703H46.1746H46.179H46.1834H46.1879H46.1923H46.1969H46.2014H46.206H46.2107H46.2153H46.2201H46.2248H46.2296H46.2344H46.2393H46.2442H46.2491H46.2541H46.2591H46.2641H46.2692H46.2743H46.2794H46.2846H46.2899H46.2951H46.3004H46.3057H46.3111H46.3165H46.322H46.3274H46.333H46.3385H46.3441H46.3497H46.3554H46.3611H46.3668H46.3726H46.3784H46.3842H46.3901H46.396H46.402H46.4079H46.414H46.42H46.4261H46.4322H46.4384H46.4446H46.4508H46.4571H46.4634H46.4697H46.4761H46.4825H46.489H46.4955H46.502H46.5085H46.5151H46.5218H46.5284H46.5351H46.5419H46.5486H46.5554H46.5623H46.5691H46.576H46.583H46.59H46.597H46.604H46.6111H46.6182H46.6254H46.6326H46.6398H46.6471H46.6544H46.6617H46.6691H46.6765H46.6839H46.6914H46.6989H46.7064H46.714H46.7216H46.7293H46.7369H46.7446H46.7524H46.7602H46.768H46.7758H46.7837H46.7917H46.7996H46.8076H46.8156H46.8237H46.8318H46.8399H46.8481H46.8563H46.8645H46.8728H46.8811H46.8894H46.8978H46.9062H46.9146H46.9231H46.9316H46.9401H46.9487H46.9573H46.9659H46.9746H46.9833H46.9921H47.0008H47.0096H47.0185H47.0274H47.0363H47.0452H47.0542H47.0632H47.0723H47.0813H47.0904H47.0996H47.1088H47.118H47.1272H47.1365H47.1458H47.1552H47.1646H47.174H47.1834H47.1929H47.2024H47.212H47.2215H47.2312H47.2408H47.2505H47.2602H47.2699H47.2797H47.2895H47.2994H47.3093H47.3192H47.3291H47.3391H47.3491H47.3591H47.3692H47.3793H47.3895H47.3997H47.4099H47.4201H47.4304H47.4407H47.451H47.4614H47.4718H47.4822H47.4927H47.5032H47.5137H47.5243H47.5349H47.5455H47.5562H47.5669H47.5776H47.5884H47.5992H47.61H47.6208H47.6317H47.6427H47.6536H47.6646H47.6756H47.6867H47.6977H47.7089H47.72H47.7312H47.7424H47.7536H47.7649H47.7762H47.7875H47.7989H47.8103H47.8218H47.8332H47.8447H47.8562H47.8678H47.8794H47.891H47.9027H47.9144H47.9261H47.9378H47.9496H47.9614H47.9733H47.9851H47.997H48.009H48.0209H48.0329H48.045H48.0511L44.0575 1.51672C43.9394 1.35339 43.75 1.25667 43.5484 1.25667H37.1707V7.03711H42.4068C42.7539 7.03711 43.0352 7.31842 43.0352 7.66544C43.0352 8.01246 42.7539 8.29378 42.4068 8.29378H36.5598L36.5424 8.29402L36.525 8.29378H33.1243L33.1068 8.29402L33.0894 8.29378H7.42424V10.6816H8.60272C8.99601 10.6816 9.31483 11.0005 9.31483 11.3938V14.5354C9.31483 14.9287 8.99601 15.2475 8.60272 15.2475H7.42424V17.0068H8.844C10.1266 14.2369 12.931 12.3154 16.1842 12.3154C19.2876 12.3154 21.9827 14.0641 23.3377 16.6299H40.9506C42.3056 14.0641 45.0007 12.3154 48.1041 12.3154C51.2413 12.3154 53.9611 14.1023 55.3013 16.7139H60.4607ZM7.42424 13.9909H8.05816V11.9383H7.42424V13.9909ZM54.2754 17.4747C54.2944 17.5631 54.3319 17.6446 54.3838 17.7148C54.7366 18.539 54.932 19.4467 54.932 20.4C54.932 20.4141 54.9325 20.4281 54.9334 20.442H52.7534C52.7309 17.847 50.6204 15.7504 48.0201 15.7504C45.4201 15.7504 43.3096 17.8467 43.2869 20.4414H41.2749C41.2754 20.4328 41.2758 20.4241 41.276 20.4154L41.2762 20.4C41.2762 16.6291 44.3332 13.5721 48.1041 13.5721C50.8282 13.5721 53.1797 15.1674 54.2754 17.4747ZM56.1873 20.442L56.1882 20.4253C56.1885 20.4169 56.1887 20.4085 56.1887 20.4C56.1887 19.5535 56.0586 18.7374 55.8173 17.9705H62.6811V20.442H56.1873ZM23.0134 20.4414C23.0125 20.4277 23.0121 20.4139 23.0121 20.4C23.0121 16.6291 19.9551 13.5721 16.1842 13.5721C12.4132 13.5721 9.35628 16.6291 9.35628 20.4C9.35628 20.414 9.35582 20.4278 9.35492 20.4416H11.3682C11.391 17.8469 13.5014 15.7505 16.1015 15.7505C18.7015 15.7505 20.8119 17.8468 20.8348 20.4414H23.0134ZM35.9141 1.25667V7.03711H33.7352V1.25667H35.9141ZM8.38491 18.2635H6.25667V20.4416H8.10096C8.10006 20.4278 8.09961 20.414 8.09961 20.4C8.09961 19.6604 8.19891 18.9441 8.38491 18.2635ZM60.4607 12.3988H59.0936L58.1104 13.9905H60.4607V12.3988ZM48.0201 17.007C46.1 17.007 44.5434 18.5636 44.5434 20.4838C44.5434 22.404 46.1 23.9606 48.0201 23.9606C49.9403 23.9606 51.4969 22.404 51.4969 20.4838C51.4969 18.5636 49.9403 17.007 48.0201 17.007ZM49.1926 20.3999C49.1926 21.0477 48.6675 21.5728 48.0197 21.5728C47.372 21.5728 46.8468 21.0477 46.8468 20.3999C46.8468 19.7522 47.372 19.2271 48.0197 19.2271C48.6675 19.2271 49.1926 19.7522 49.1926 20.3999ZM16.1015 17.0072C14.1813 17.0072 12.6247 18.5638 12.6247 20.4839C12.6247 22.4041 14.1813 23.9607 16.1015 23.9607C18.0217 23.9607 19.5783 22.4041 19.5783 20.4839C19.5783 18.5638 18.0217 17.0072 16.1015 17.0072ZM17.2726 20.4001C17.2726 21.0478 16.7475 21.573 16.0998 21.573C15.452 21.573 14.9269 21.0478 14.9269 20.4001C14.9269 19.7523 15.452 19.2272 16.0998 19.2272C16.7475 19.2272 17.2726 19.7523 17.2726 20.4001ZM37.7578 10.3046C37.7578 9.95758 38.0391 9.67627 38.3861 9.67627H41.067C41.4141 9.67627 41.6954 9.95758 41.6954 10.3046C41.6954 10.6516 41.4141 10.9329 41.067 10.9329H38.3861C38.0391 10.9329 37.7578 10.6516 37.7578 10.3046Z" fill="#323232"/>
</mask>
<g mask="url(#mask0_503_5590)">
<path d="M-4 13V-2H66.5V25.5H58.5V22H56V15L50.5 13H44.5L39 5.5H28V13H-4Z" fill="#323232"/>
</g>
</g>
<defs>
<clipPath id="clip0_503_5590">
<rect width="63.9377" height="30.2174" fill="white"/>
</clipPath>
</defs>
</svg>
