<svg width="158" height="48" viewBox="0 0 158 48" fill="none" xmlns="http://www.w3.org/2000/svg">
<g clip-path="url(#clip0_5202_1872)">
<path d="M69.5841 19H72.6716C73.2967 19 73.8201 19.2599 74.2417 19.7797C74.3541 19.9343 74.4945 20.1731 74.6631 20.4963C74.6912 20.5384 74.7157 20.5805 74.7367 20.6227C74.8 20.7211 75.341 21.6694 76.3594 23.4677C76.6474 23.9805 76.9777 24.5635 77.35 25.2168C79.661 29.2981 80.8482 31.3844 80.9115 31.4758L82.1442 33.678H78.899C78.0419 33.678 77.4097 33.2741 77.0022 32.4663C76.7142 31.9746 76.5034 31.6092 76.3701 31.3705C76.2577 31.1668 76.1944 31.0579 76.1805 31.0438H66.1071C66.093 31.0438 66.0755 31.0509 66.0543 31.0648C66.0403 31.0789 66.0297 31.107 66.0226 31.1491L65.0744 32.814C64.6459 33.39 64.077 33.678 63.3674 33.678H60.1536C60.1396 33.678 60.1326 33.678 60.1326 33.678C60.1326 33.6709 60.1326 33.6639 60.1326 33.657C61.6849 30.9104 63.0373 28.529 64.1893 26.5129C65.1024 24.9042 65.8401 23.6047 66.402 22.6142C67.2731 21.0758 67.7296 20.275 67.7719 20.2118C67.8842 20.001 68.0037 19.8149 68.1302 19.6533C68.5377 19.2178 69.0223 19 69.5841 19ZM71.1332 22.1295L67.8351 27.9353H74.4313C72.2746 24.1561 71.1752 22.2208 71.1332 22.1295ZM85.6088 19H88.9492C89.4761 19 89.8623 19.2564 90.1082 19.7692C90.1784 19.8746 90.6316 20.6578 91.4675 22.119C92.6828 24.2193 93.9155 26.3513 95.1659 28.5148C95.215 28.5991 95.3767 28.8767 95.6506 29.3474H95.6612C95.7032 29.27 96.2724 28.283 97.3682 26.3864C98.9838 23.6047 99.8339 22.1295 99.9182 21.9609C99.9883 21.8555 100.455 21.0512 101.319 19.5479C101.481 19.3161 101.688 19.1546 101.941 19.0632C102.061 19.0211 102.212 19 102.394 19H105.703C105.71 19 105.714 19.0035 105.714 19.0106V32.4241C105.714 32.9089 105.506 33.2741 105.092 33.5199C104.909 33.6254 104.719 33.678 104.523 33.678H101.941C101.934 33.678 101.931 33.6745 101.931 33.6674V26.0598C101.79 26.2916 101.06 27.5525 99.739 29.8427L98.1373 32.6138C97.8845 32.972 97.5542 33.1511 97.147 33.1511H94.165C93.7715 33.1511 93.4483 32.9826 93.1955 32.6455C93.1535 32.5893 92.7389 31.8726 91.9521 30.4959C91.903 30.4187 91.3164 29.4071 90.1925 27.4612C89.7921 26.7658 89.5216 26.2986 89.3812 26.0598V33.6674C89.3812 33.6745 89.3776 33.678 89.3705 33.678H86.7889C86.4448 33.678 86.1428 33.534 85.8829 33.246C85.6931 33.0142 85.5985 32.7614 85.5985 32.4873V19.0106C85.5985 19.0035 85.6018 19 85.6088 19ZM112.118 19H128.703C129.244 19 129.662 19.274 129.957 19.8219C130.048 20.0256 130.094 20.2574 130.094 20.5173V22.9935C130.094 23.689 129.855 24.1491 129.377 24.3739L118.482 29.537C118.454 29.5511 118.422 29.5651 118.387 29.5792C118.261 29.6493 118.082 29.7336 117.85 29.8321H130.083V29.8427L130.094 29.8531V32.1922C130.094 32.8808 129.781 33.3478 129.156 33.5937C129.023 33.6499 128.882 33.678 128.735 33.678H112.044C111.595 33.678 111.208 33.4462 110.885 32.9826C110.765 32.7368 110.706 32.5154 110.706 32.3188V30.7171C110.706 30.0709 111.082 29.6038 111.833 29.3158L124.646 22.846H110.727L110.716 22.8355L110.706 22.8249V20.3593C110.706 19.8675 110.966 19.4671 111.486 19.1581C111.689 19.0527 111.9 19 112.118 19ZM137.478 19C137.843 19 138.131 19.0738 138.342 19.2213C138.49 19.3126 138.655 19.4777 138.838 19.7165L139.47 20.5384C139.884 21.0934 140.358 21.7326 140.892 22.4561C141.433 23.1727 141.914 23.8154 142.336 24.3844C142.757 24.9464 142.993 25.266 143.042 25.3433L147.215 19.4531C147.411 19.2564 147.59 19.137 147.752 19.0948C147.878 19.0316 148.071 19 148.331 19H152.451C152.388 19.0913 151.981 19.6252 151.229 20.6016C150.485 21.571 149.624 22.6879 148.647 23.9524C147.678 25.2098 146.817 26.3267 146.066 27.3031L144.928 28.7783V33.678H142.378C141.921 33.678 141.539 33.4778 141.229 33.0775C141.061 32.8315 140.977 32.5787 140.977 32.3188V28.7572L134.391 20.4752C134.391 20.4541 134.012 19.9624 133.253 19H137.478Z" fill="#323232"/>
<path d="M24.7788 47.4467C37.7282 47.4467 48.2258 36.9492 48.2258 23.9997C48.2258 11.0503 37.7282 0.552734 24.7788 0.552734C11.8294 0.552734 1.33179 11.0503 1.33179 23.9997C1.33179 36.9492 11.8294 47.4467 24.7788 47.4467Z" fill="#E94233" stroke="#FEE25F" stroke-width="1.10599"/>
<path d="M27.2127 36.9445C26.8588 34.5555 25.0007 32.9629 25.0007 32.9629C25.0007 32.9629 25.598 33.5601 25.7749 36.8339C25.9519 40.1076 28.1344 40.8524 29.2035 40.8154C28.6874 40.5206 27.5666 39.3334 27.2127 36.9445Z" fill="#FFE260"/>
<path d="M22.2357 37.0597C22.5896 34.6708 24.4476 33.0781 24.4476 33.0781C24.4476 33.0781 23.8504 33.6754 23.6734 36.9491C23.4965 40.2228 21.314 40.9676 20.2449 40.9307C20.761 40.6358 21.8817 39.4486 22.2357 37.0597Z" fill="#FFE260"/>
<path d="M21.9032 34.0735C22.5226 33.1003 23.4885 32.7094 23.894 32.6357C23.341 32.9695 22.218 34.1607 21.9032 36.2855C21.4608 39.2717 18.8064 39.7141 17.4792 39.9353C19.0276 39.2717 19.5359 38.9959 20.4654 37.8339C21.3502 36.7279 21.129 35.2901 21.9032 34.0735Z" fill="#FFE260"/>
<path d="M27.544 33.9585C26.9247 32.9853 25.9587 32.5944 25.5532 32.5208C26.1062 32.8545 27.2292 34.0457 27.544 36.1705C27.9864 39.1567 30.6408 39.5991 31.968 39.8203C30.4196 39.1567 29.9113 38.8809 28.9818 37.7189C28.097 36.6129 28.3182 35.1751 27.544 33.9585Z" fill="#FFE260"/>
<path d="M20.0233 34.7373C21.5322 31.9517 23.0095 32.046 23.4519 32.1935C22.862 32.3041 21.2399 33.282 20.9081 35.2903C20.433 38.1659 18.1431 39.5322 16.5947 39.3825C13.1662 39.0507 13.7192 35.6646 11.3966 34.9585C10.733 34.7373 10.4012 35.0691 10.2906 35.6221C10.6445 35.2682 11.1017 35.2533 11.286 35.2903C12.0823 35.4672 11.7653 36.2487 11.286 36.2857C10.8067 36.3226 9.92566 36.285 9.95879 35.2903C9.9872 34.4376 10.9542 34.1843 11.7284 34.4055C12.5026 34.6267 13.6086 35.9539 15.157 36.6175C16.7053 37.2811 18.5855 37.3917 20.0233 34.7373Z" fill="#FFE260"/>
<path d="M19.139 33.5207C21.2625 31.4856 21.6828 31.7511 22.7888 31.8617C21.5722 31.8617 20.9086 32.5253 20.0238 33.8525C19.139 35.1797 18.4818 36.3286 16.4846 36.175C15.0468 36.0644 13.9409 35.1797 12.6137 33.4101C11.3459 31.7197 10.0699 31.6405 9.29569 31.6405C8.67633 31.6405 8.66897 31.9353 8.74269 32.0829C9.51689 31.9723 10.1148 32.7617 9.51689 33.1889C8.74269 33.7419 7.67745 32.3439 8.5215 31.6405C8.76181 31.4403 10.7335 30.2027 13.0561 32.3041C15.3786 34.4055 17.9224 34.7373 19.139 33.5207Z" fill="#FFE260"/>
<path d="M29.4242 34.6221C27.9154 31.8365 26.438 31.9307 25.9956 32.0783C26.5855 32.1889 28.2076 33.1668 28.5394 35.1751C29.0145 38.0506 31.3044 39.417 32.8527 39.2672C36.2813 38.9354 35.7283 35.5493 38.0509 34.8433C38.7145 34.6221 39.0463 34.9539 39.1569 35.5068C38.803 35.1529 38.3458 35.1381 38.1615 35.1751C37.3652 35.352 37.6822 36.1335 38.1615 36.1704C38.6408 36.2074 39.5219 36.1698 39.4887 35.1751C39.4604 34.3223 38.4933 34.0691 37.7191 34.2903C36.9449 34.5115 35.8389 35.8386 34.2905 36.5022C32.7421 37.1658 30.862 37.2764 29.4242 34.6221Z" fill="#FFE260"/>
<path d="M15.0466 30.3135C19.0333 32.9166 21.0959 29.7963 21.0189 29.2075C21.4551 30.1423 20.5485 32.5244 18.6964 33.1891C17.2611 33.704 15.3784 33.6315 13.83 31.6407C12.2816 29.6499 10.1802 29.8711 8.52124 31.0877C9.40603 29.8711 11.7286 28.1015 15.0466 30.3135Z" fill="#FFE260"/>
<path d="M9.29543 27.5486C11.1724 26.9231 13.6457 28.6546 14.6042 29.4288C12.0604 28.3228 10.7332 28.8979 9.95902 29.2076C8.85303 29.65 7.63644 28.1016 9.29543 27.5486Z" fill="#FFE260"/>
<path d="M30.3087 33.4054C28.1852 31.3704 27.7649 31.6358 26.6589 31.7464C27.8755 31.7464 28.5391 32.41 29.4239 33.7372C30.3087 35.0644 30.9659 36.2135 32.9631 36.0598C34.4009 35.9492 35.5069 35.0644 36.8341 33.2948C38.1017 31.6044 39.3778 31.5252 40.152 31.5252C40.7714 31.5252 40.7787 31.8201 40.705 31.9676C39.9308 31.857 39.3329 32.6465 39.9308 33.0736C40.705 33.6266 41.7703 32.2287 40.9262 31.5252C40.686 31.3251 38.7142 30.0875 36.3917 32.1888C34.0691 34.2902 31.5253 34.622 30.3087 33.4054Z" fill="#FFE260"/>
<path d="M14.3828 27.5484C18.6665 29.6902 20.2445 27.3272 20.0233 26C22.0141 29.4286 19.1385 32.083 15.3781 29.318C11.6817 26.6001 9.5164 26.553 8.18921 27.5484C8.44728 26.7005 9.95879 25.3364 14.3828 27.5484Z" fill="#FFE260"/>
<path d="M8.74214 24.3412C10.8656 23.8988 13.4979 26.0739 14.4933 27.2168C10.9541 25.1154 9.59676 25.6834 8.96334 26.0002C8.07855 26.4426 7.08316 24.6867 8.74214 24.3412Z" fill="#FFE260"/>
<path d="M34.4012 30.1983C30.4145 32.8013 28.3519 29.6811 28.4288 29.0923C27.9926 30.0271 28.8993 32.4092 30.7514 33.0739C32.1868 33.5888 34.0694 33.5162 35.6178 31.5255C37.1662 29.5347 39.2675 29.7559 40.9265 30.9725C40.0417 29.7559 37.7192 27.9863 34.4012 30.1983Z" fill="#FFE260"/>
<path d="M12.6132 23.8987C16.5063 25.9337 18.0326 24.1199 17.8114 23.1245C19.028 23.7881 20.1339 25.8895 18.8068 27.1061C17.4796 28.3226 15.362 27.3306 12.6132 25.0047C11.1754 23.7881 9.18464 23.3457 6.97266 24.0093C7.23073 23.1245 9.18464 22.1065 12.6132 23.8987Z" fill="#FFE260"/>
<path d="M9.29553 20.2488C10.8882 20.3373 12.6135 22.4977 13.2771 23.5668C12.3186 23.0874 10.0918 22.1732 8.85313 22.3502C7.30474 22.5714 7.30474 20.1382 9.29553 20.2488Z" fill="#FFE260"/>
<path d="M40.1524 27.4332C38.2755 26.8076 35.8021 28.5391 34.8436 29.3133C37.3874 28.2074 38.7146 28.7825 39.4888 29.0921C40.5948 29.5345 41.8114 27.9862 40.1524 27.4332Z" fill="#FFE260"/>
<path d="M13.8298 21.1336C15.157 21.399 16.4473 20.4331 16.9266 19.917C16.5948 21.3548 16.9266 21.4654 17.2584 22.3502C17.8905 24.036 15.2676 24.4516 14.3828 23.8986C13.498 23.3456 12.945 21.4654 10.8436 20.2488C8.74223 19.0322 7.74684 20.47 7.30444 21.1336C7.41504 19.1428 8.96343 18.9216 9.73762 19.1428C10.5884 19.3859 12.1708 20.8018 13.8298 21.1336Z" fill="#FFE260"/>
<path d="M11.286 18.4793C12.6132 19.9835 13.7929 20.507 14.2722 20.5807C13.498 20.6913 12.2814 20.2489 11.6178 19.6959C10.9542 19.1429 10.0694 18.7005 9.1846 18.8111C8.2998 18.9217 7.74681 18.2581 7.85741 17.8157C8.10625 16.8204 9.62699 16.5992 11.286 18.4793Z" fill="#FFE260"/>
<path d="M35.0648 27.4332C30.7811 29.575 29.203 27.212 29.4242 25.8848C27.4334 29.3133 30.309 31.9677 34.0694 29.2027C37.7658 26.4849 39.9311 26.4378 41.2583 27.4332C41.0002 26.5853 39.4887 25.2212 35.0648 27.4332Z" fill="#FFE260"/>
<path d="M10.5119 15.8251C11.293 16.2938 12.0971 18.0371 12.392 18.8113C10.8437 17.1523 9.51647 16.9311 9.18467 16.8205C8.85288 16.7099 8.52108 16.3781 8.63168 15.9357C8.72839 15.5488 9.40587 15.1615 10.5119 15.8251Z" fill="#FFE260"/>
<path d="M13.8297 16.9311C15.3339 18.2583 16.9634 18.0739 17.5901 17.7053C16.6316 19.5854 14.368 22.0186 12.8344 18.4795C11.1749 14.65 9.51638 14.9403 8.63159 15.2721C9.84818 12.6177 11.9496 15.2721 13.8297 16.9311Z" fill="#FFE260"/>
<path d="M40.705 24.2255C38.5815 23.7831 35.9492 25.9581 34.9539 27.1011C38.493 24.9997 39.8503 25.5677 40.4838 25.8845C41.3686 26.3269 42.364 24.571 40.705 24.2255Z" fill="#FFE260"/>
<path d="M12.834 14.3871C13.1658 15.0506 13.4976 15.9355 13.7188 16.3779C12.9446 15.3825 12.5022 15.1612 11.9492 14.8294C11.3962 14.4977 11.3962 14.1659 11.6174 13.9447C11.7923 13.7698 12.5212 13.7614 12.834 14.3871Z" fill="#FFE260"/>
<path d="M11.1768 12.1502C11.8846 12.2387 12.4293 13.2446 12.6136 13.7239C11.7288 13.2815 11.2864 13.7239 10.7334 13.7239C10.1804 13.7239 9.73804 13.3921 9.73804 12.9497C9.73804 12.5073 10.292 12.0396 11.1768 12.1502Z" fill="#FFE260"/>
<path d="M36.8342 23.7832C32.9411 25.8182 31.4148 24.0044 31.636 23.009C30.4194 23.6726 29.3134 25.774 30.6406 26.9906C31.9678 28.2072 34.0853 27.2151 36.8342 24.8892C38.2719 23.6726 40.2627 23.2302 42.4747 23.8938C42.2166 23.009 40.2627 21.991 36.8342 23.7832Z" fill="#FFE260"/>
<path d="M14.3825 14.2763C15.3251 16.027 17.8111 16.3408 18.917 16.3777C17.3687 18.0367 15.0461 17.4837 14.1613 16.2671C13.2765 15.0505 13.0553 12.4121 11.5069 11.8431C10.6399 11.5245 9.553 12.1381 9.18433 12.5067C9.62672 11.622 10.6221 11.1795 11.3963 11.2901C13.0553 11.5271 13.6083 12.8385 14.3825 14.2763Z" fill="#FFE260"/>
<path d="M15.8205 12.7282C16.2545 14.4642 17.1846 15.5301 17.7007 15.825C16.2629 15.272 15.1569 14.9402 14.4933 12.9494C14.0152 11.5151 12.945 10.8849 12.5026 10.7374C13.498 10.6637 15.3781 10.9586 15.8205 12.7282Z" fill="#FFE260"/>
<path d="M40.1523 20.1335C38.5597 20.222 36.8344 22.3825 36.1708 23.4515C37.1292 22.9722 39.356 22.058 40.5947 22.235C42.1431 22.4561 42.1431 20.0229 40.1523 20.1335Z" fill="#FFE260"/>
<path d="M17.8515 11.2577C17.942 11.9817 17.4426 14.0185 17.1476 14.9402C17.2582 13.8342 16.5947 12.3964 16.3735 11.5116C16.1523 10.6268 16.5947 10.1844 16.9529 10.1199C17.2795 10.0612 17.7409 10.3729 17.8515 11.2577Z" fill="#FFE260"/>
<path d="M18.6958 8.19354C18.9539 8.19354 19.4479 8.459 19.3594 9.52075C19.2709 10.5825 18.4378 11.8802 18.0322 12.3963C18.364 11.4009 17.9216 10.5161 17.9216 9.29953C17.9216 8.32626 18.4378 8.15669 18.6958 8.19354Z" fill="#FFE260"/>
<path d="M35.6174 21.0184C34.2902 21.2838 32.9999 20.3179 32.5206 19.8018C32.8524 21.2396 32.5206 21.3502 32.1888 22.235C31.5566 23.9207 34.1796 24.3364 35.0644 23.7834C35.9492 23.2304 36.5022 21.3502 38.6036 20.1336C40.7049 18.917 41.7003 20.3548 42.1427 21.0184C42.0321 19.0276 40.4837 18.8064 39.7095 19.0276C38.8588 19.2706 37.2764 20.6866 35.6174 21.0184Z" fill="#FFE260"/>
<path d="M21.0187 8.52549C20.8418 9.3218 19.6547 10.5531 19.1385 11.0692C19.5809 10.295 19.6915 9.74204 19.6915 8.0831C19.6915 7.41543 20.3541 7.35588 20.5763 7.4195C20.7986 7.48314 21.1957 7.72918 21.0187 8.52549Z" fill="#FFE260"/>
<path d="M19.692 14.2766C19.692 15.2499 20.2819 16.1568 20.5768 16.4886C18.2542 16.378 17.7012 14.8296 17.8118 13.613C17.9224 12.3964 19.2496 11.5116 20.1344 10.5162C21.0192 9.52082 21.351 8.96783 21.4616 7.19824C21.904 8.74663 21.904 9.85262 21.351 10.9586C20.6157 12.4292 19.692 13.06 19.692 14.2766Z" fill="#FFE260"/>
<path d="M38.1616 18.3641C36.8344 19.8683 35.6548 20.3917 35.1754 20.4655C35.9496 20.5761 37.1662 20.1337 37.8298 19.5807C38.4934 19.0277 39.3782 18.5853 40.263 18.6959C41.1478 18.8065 41.7008 18.1429 41.5902 17.7005C41.3413 16.7051 39.8206 16.4839 38.1616 18.3641Z" fill="#FFE260"/>
<path d="M22.2055 14.2769C22.1035 15.6038 22.6777 16.4517 23.1201 16.8204C21.4611 16.8204 20.3551 15.3876 20.3551 14.166C20.3551 12.9494 21.4611 12.2858 22.2353 10.5162C23.0095 8.74665 22.2353 6.86647 22.3459 6.97707C22.4565 7.08767 23.4519 8.52545 23.4519 10.0738C23.4519 11.6222 22.3161 12.8391 22.2055 14.2769Z" fill="#FFE260"/>
<path d="M38.9357 15.7098C38.1547 16.1785 37.3504 17.9218 37.0555 18.696C38.6039 17.0371 39.9311 16.8158 40.2629 16.7052C40.5947 16.5946 40.9265 16.2628 40.8159 15.8204C40.7192 15.4336 40.0417 15.0462 38.9357 15.7098Z" fill="#FFE260"/>
<path d="M35.6178 16.8156C34.1136 18.1428 32.4841 17.9584 31.8574 17.5898C32.8159 19.47 35.0796 21.9031 36.6132 18.364C38.2726 14.5345 39.9312 14.8248 40.8159 15.1566C39.5994 12.5022 37.498 15.1566 35.6178 16.8156Z" fill="#FFE260"/>
<path d="M36.6132 14.2718C36.2814 14.9354 35.9496 15.8202 35.7284 16.2626C36.5026 15.2672 36.945 15.046 37.498 14.7142C38.051 14.3824 38.051 14.0506 37.8298 13.8294C37.6548 13.6546 36.926 13.6462 36.6132 14.2718Z" fill="#FFE260"/>
<path d="M38.2716 12.035C37.5638 12.1235 37.019 13.1294 36.8347 13.6087C37.7195 13.1662 38.1619 13.6087 38.7149 13.6087C39.2679 13.6087 39.7103 13.2769 39.7103 12.8345C39.7103 12.3921 39.1564 11.9244 38.2716 12.035Z" fill="#FFE260"/>
<path d="M35.0647 14.1613C34.122 15.912 31.6361 16.2259 30.5302 16.2627C32.0785 17.9217 34.4011 17.3687 35.2859 16.1521C36.1707 14.9355 36.3919 12.2972 37.9403 11.7281C38.8074 11.4095 39.8941 12.0231 40.2629 12.3917C39.8205 11.507 38.8251 11.0645 38.0509 11.1751C36.3919 11.4122 35.8389 12.7235 35.0647 14.1613Z" fill="#FFE260"/>
<path d="M33.627 12.613C33.193 14.3489 32.2629 15.4148 31.7468 15.7098C33.1846 15.1568 34.2906 14.825 34.9542 12.8342C35.4322 11.3999 36.5026 10.7697 36.945 10.6222C35.9496 10.5485 34.0694 10.8434 33.627 12.613Z" fill="#FFE260"/>
<path d="M31.5965 11.1427C31.506 11.8667 32.0055 13.9036 32.3003 14.8252C32.1897 13.7192 32.8533 12.2814 33.0745 11.3966C33.2957 10.5118 32.8533 10.0694 32.495 10.0049C32.1685 9.94617 31.7071 10.2579 31.5965 11.1427Z" fill="#FFE260"/>
<path d="M30.7519 8.07831C30.4938 8.07831 29.9999 8.34377 30.0884 9.40552C30.1768 10.4673 31.0101 11.7649 31.4155 12.2811C31.0837 11.2857 31.5261 10.4009 31.5261 9.1843C31.5261 8.21102 31.0101 8.04145 30.7519 8.07831Z" fill="#FFE260"/>
<path d="M28.4287 8.41027C28.6057 9.20658 29.7928 10.4379 30.3089 10.954C29.8665 10.1798 29.7559 9.62679 29.7559 7.96787C29.7559 7.30018 29.0934 7.24064 28.8711 7.30428C28.6488 7.36789 28.2517 7.61395 28.4287 8.41027Z" fill="#FFE260"/>
<path d="M29.7564 14.1613C29.7564 15.1346 29.1665 16.0415 28.8716 16.3733C31.1942 16.2627 31.7472 14.7143 31.6366 13.4978C31.526 12.2812 30.1988 11.3964 29.314 10.401C28.4292 9.40559 28.0975 8.85259 27.9869 7.08301C27.5445 8.63139 27.5445 9.73739 28.0975 10.8434C28.8327 12.314 29.7564 12.9448 29.7564 14.1613Z" fill="#FFE260"/>
<path d="M27.2418 14.1616C27.344 15.4886 26.7698 16.3365 26.3274 16.7052C27.9864 16.7052 29.0924 15.2724 29.0924 14.0508C29.0924 12.8342 27.9864 12.1706 27.2122 10.401C26.438 8.63142 27.2122 6.75123 27.1016 6.86183C26.991 6.97243 25.9956 8.41022 25.9956 9.95861C25.9956 11.507 27.1312 12.7238 27.2418 14.1616Z" fill="#FFE260"/>
<path d="M24.2264 15.2717C24.5803 16.1565 24.337 16.7095 24.0052 16.8201C23.6734 16.9307 23.0098 16.5989 22.678 15.2717C22.3462 13.9445 23.231 12.3961 23.6734 11.2901C24.0273 10.4053 23.821 9.18874 23.6734 8.63574C23.8577 8.96754 24.2264 9.89657 24.2264 10.9583C24.2264 12.2855 23.784 12.5067 23.784 13.7233C23.784 14.2763 24.0052 14.7187 24.2264 15.2717Z" fill="#FFE260"/>
<path d="M25.2216 15.1567C24.8676 16.0415 25.111 16.5945 25.4428 16.7051C25.7746 16.8157 26.4381 16.4839 26.7699 15.1567C27.1017 13.8295 26.2169 12.2811 25.7746 11.1751C25.4206 10.2903 25.627 9.07375 25.7746 8.52075C25.5903 8.85255 25.2216 9.78158 25.2216 10.8433C25.2216 12.1705 25.664 12.3917 25.664 13.6083C25.664 14.1613 25.4428 14.6037 25.2216 15.1567Z" fill="#FFE260"/>
<path d="M25.2637 13.2308C24.9282 12.3917 24.7786 11.0276 24.6681 10.1797C24.6681 10.8433 24.4002 12.3761 24.179 13.2609C23.9578 14.1457 24.3192 14.7676 24.7616 14.7676C25.204 14.7676 25.4849 13.7838 25.2637 13.2308Z" fill="#FFE260"/>
<path d="M25.3778 36.1249C25.3778 35.2211 25.1108 33.9585 24.7819 33.0737C24.4472 34.0691 24.2928 34.8433 24.2928 36.155C24.2928 37.067 24.7616 42.0318 24.7819 41.5899C24.8896 39.2673 25.3778 38.1613 25.3778 36.1249Z" fill="#FFE260"/>
<path d="M27.3231 18.3643C26.2613 18.3643 25.6373 19.4101 25.49 19.8894C25.6742 19.7419 26.4044 19.281 27.068 19.2147C28.174 19.1041 28.0358 19.3975 29.5841 19.7293C30.3583 19.8952 31.5258 19.6914 31.8576 19.2491C31.5258 19.2859 31.0834 19.4702 30.1986 19.2491C29.3138 19.0279 28.6502 18.3643 27.3231 18.3643Z" fill="#FFE260"/>
<path d="M21.9035 18.364C22.9652 18.364 23.5892 19.4099 23.7367 19.8892C23.5522 19.7417 22.822 19.2808 22.1584 19.2144C21.0524 19.1038 21.1908 19.3973 19.6425 19.729C18.8683 19.8949 17.7007 19.6912 17.3689 19.2488C17.7007 19.2857 18.1431 19.47 19.0279 19.2488C19.9127 19.0276 20.5763 18.364 21.9035 18.364Z" fill="#FFE260"/>
<path fill-rule="evenodd" clip-rule="evenodd" d="M22.8512 28.5332C22.7508 28.8342 23.1846 28.9422 23.2939 28.6336C23.4032 28.325 23.2528 28.0647 23.0519 27.9308C22.7508 27.73 22.2067 27.7798 21.9888 28.2319C21.747 28.734 21.8884 29.2359 22.3904 29.6374C22.8606 30.0136 24.0356 30.2136 24.8425 29.4945C25.6495 30.2136 26.8245 30.0136 27.2945 29.6374C27.7966 29.2359 27.938 28.734 27.6962 28.2319C27.4783 27.7798 26.9342 27.73 26.6329 27.9308C26.4323 28.0647 26.2819 28.325 26.3911 28.6336C26.5004 28.9422 26.9342 28.8342 26.8338 28.5332C26.8003 28.4327 26.7869 28.2613 26.9877 28.1609C27.1886 28.0605 27.4124 28.2562 27.4954 28.4327C27.6369 28.734 27.3549 29.537 26.3911 29.537C25.4274 29.537 25.1865 28.1985 25.1865 27.5294C25.1865 27.5294 25.4019 26.8266 26.2051 26.4249C26.8406 26.1073 26.4181 24.8942 24.8425 24.9256C23.2669 24.8942 22.8443 26.1073 23.4799 26.4249C24.2829 26.8266 24.4986 27.5294 24.4986 27.5294C24.4986 28.1985 24.2577 29.537 23.2939 29.537C22.3302 29.537 22.0481 28.734 22.1896 28.4327C22.2726 28.2562 22.4965 28.0605 22.6973 28.1609C22.8981 28.2613 22.8847 28.4327 22.8512 28.5332Z" fill="#FFE260"/>
<path d="M26.1283 21.5572C26.1049 21.8875 26.7674 22.2257 27.1016 22.3535C27.1016 22.3535 25.2214 22.2352 25.2214 21.7928C25.2214 20.908 26.5761 20.046 27.8979 20.0236C29.1754 20.0019 30.5523 20.9084 31.0832 21.4098C30.6014 21.1345 29.3844 20.5604 28.37 20.466C27.1016 20.348 26.158 21.1443 26.1283 21.5572Z" fill="#FFE260"/>
<path fill-rule="evenodd" clip-rule="evenodd" d="M27.8982 22.1471C28.3868 22.1471 28.783 21.7509 28.783 21.2622C28.783 20.7736 28.3868 20.3774 27.8982 20.3774C27.7367 20.3774 27.5852 20.4208 27.4549 20.4964C27.6697 20.511 27.8394 20.6899 27.8394 20.9083C27.8394 21.1364 27.6545 21.3212 27.4264 21.3212C27.2486 21.3212 27.097 21.2088 27.0389 21.0511C27.0223 21.1187 27.0134 21.1895 27.0134 21.2622C27.0134 21.7509 27.4096 22.1471 27.8982 22.1471Z" fill="#FFE260"/>
<path d="M23.0979 21.5572C23.1216 21.8875 22.4589 22.2257 22.1246 22.3535C22.1246 22.3535 24.0048 22.2352 24.0048 21.7928C24.0048 20.908 22.6504 20.046 21.3283 20.0236C20.0509 20.0019 18.6739 20.9084 18.1431 21.4098C18.6248 21.1345 19.8419 20.5604 20.8564 20.466C22.1246 20.348 23.0685 21.1443 23.0979 21.5572Z" fill="#FFE260"/>
<path fill-rule="evenodd" clip-rule="evenodd" d="M21.3289 22.1471C20.8402 22.1471 20.4441 21.7509 20.4441 21.2622C20.4441 20.7736 20.8402 20.3774 21.3289 20.3774C21.4905 20.3774 21.6419 20.4208 21.7723 20.4964C21.5575 20.511 21.3879 20.6899 21.3879 20.9083C21.3879 21.1364 21.5727 21.3212 21.8008 21.3212C21.9786 21.3212 22.1302 21.2088 22.1883 21.0511C22.2049 21.1187 22.2137 21.1895 22.2137 21.2622C22.2137 21.7509 21.8175 22.1471 21.3289 22.1471Z" fill="#FFE260"/>
</g>
<defs>
<clipPath id="clip0_5202_1872">
<rect width="156.608" height="48" fill="white" transform="translate(0.779053)"/>
</clipPath>
</defs>
</svg>
